0, 0, Header, 1, 2, 256
1, 0, Start_track
1, 0, Time_signature, 4, 2, 24, 8
1, 0, Key_signature, -5, "major"
1, 0, Tempo, 1200000
1, 3072, Tempo, 1200000
1, 3328, Tempo, 1034482
1, 4096, Tempo, 1153845
1, 4480, Tempo, 1200000
1, 6144, Tempo, 1200000
1, 10240, Tempo, 1176469
1, 16384, Tempo, 1176469
1, 16771, Tempo, 1224489
1, 18432, Tempo, 1250000
1, 19456, Tempo, 1200000
1, 20992, Tempo, 1250000
1, 21504, Tempo, 1176469
1, 26112, Tempo, 1153845
1, 31744, Tempo, 1153845
1, 32256, Tempo, 1132074
1, 32768, Tempo, 1111111
1, 33408, Tempo, 1071427
1, 33792, Tempo, 1071426
1, 33792, Tempo, 1153845
1, 33792, Time_signature, 2, 2, 24, 8
1, 34304, Tempo, 1153844
1, 34304, Tempo, 1111111
1, 34304, Time_signature, 4, 2, 24, 8
1, 34560, Tempo, 1200000
1, 34816, Tempo, 1333332
1, 35200, Tempo, 1395347
1, 35328, Tempo, 1250000
1, 35840, Tempo, 1176469
1, 36800, Tempo, 1250000
1, 36992, Tempo, 1304346
1, 37248, Tempo, 1250000
1, 37376, Tempo, 1200000
1, 37888, Tempo, 1224489
1, 39202, Tempo, 1276595
1, 39424, Tempo, 1276595
1, 39680, Tempo, 1333332
1, 40448, Tempo, 1250000
1, 45568, Tempo, 882351
1, 51712, Tempo, 937500
1, 52352, Tempo, 857142
1, 52480, Tempo, 1090909
1, 52736, Tempo, 937500
1, 53248, Tempo, 937500
1, 53760, Tempo, 882351
1, 62720, Tempo, 923075
1, 63616, Tempo, 937500
1, 64000, Tempo, 882351
1, 68096, Tempo, 869565
1, 69248, Tempo, 857142
1, 72704, Tempo, 882351
1, 73728, Tempo, 895521
1, 74752, Tempo, 909089
1, 75776, Tempo, 923075
1, 78336, Tempo, 895521
1, 88576, Tempo, 967740
1, 89472, Tempo, 1000000
1, 90135, Tempo, 1071427
1, 90624, Tempo, 1000000
1, 96128, Tempo, 952379
1, 96341, Tempo, 1000000
1, 96554, Tempo, 1052631
1, 96768, Tempo, 1111111
1, 101120, Tempo, 1153845
1, 101376, Tempo, 1200000
1, 101590, Tempo, 1250000
1, 101888, Tempo, 1276595
1, 108032, Time_signature, 9, 3, 36, 8
1, 111488, Tempo, 1333332
1, 111488, Time_signature, 4, 2, 24, 8
1, 112960, Tempo, 1463413
1, 113536, Tempo, 1304346
1, 114048, Tempo, 1363636
1, 114560, Tempo, 1276595
1, 120704, Tempo, 1333332
1, 121055, Tempo, 1395347
1, 121728, Tempo, 1276595
1, 126848, Tempo, 1363636
1, 128384, Tempo, 1578947
1, 128385, End_track
2, 0, Start_track
2, 0, Program_c, 0, 0
2, 0, Control_c, 0, 121, 0
2, 0, Control_c, 0, 64, 0
2, 0, Control_c, 0, 10, 63
2, 0, Control_c, 0, 7, 86
2, 0, Note_on_c, 0, 56, 43
2, 0, Note_on_c, 0, 59, 43
2, 0, Note_on_c, 0, 64, 43
2, 0, Control_c, 0, 121, 0
2, 0, Control_c, 0, 64, 0
2, 0, Control_c, 0, 10, 63
2, 0, Control_c, 0, 7, 86
2, 0, Title_t, "Piano"
2, 0, Note_on_c, 0, 40, 74
2, 0, Note_on_c, 0, 47, 74
2, 0, Note_on_c, 0, 52, 74
2, 512, Note_off_c, 0, 56, 0
2, 512, Note_off_c, 0, 59, 0
2, 512, Note_off_c, 0, 64, 0
2, 512, Note_on_c, 0, 53, 56
2, 512, Note_on_c, 0, 58, 56
2, 512, Note_on_c, 0, 65, 56
2, 512, Note_off_c, 0, 40, 0
2, 512, Note_off_c, 0, 47, 0
2, 512, Note_off_c, 0, 52, 0
2, 512, Note_on_c, 0, 38, 72
2, 512, Note_on_c, 0, 46, 72
2, 512, Note_on_c, 0, 50, 72
2, 1024, Note_off_c, 0, 53, 0
2, 1024, Note_off_c, 0, 58, 0
2, 1024, Note_off_c, 0, 65, 0
2, 1024, Note_on_c, 0, 56, 59
2, 1024, Note_on_c, 0, 59, 59
2, 1024, Note_on_c, 0, 64, 59
2, 1024, Note_off_c, 0, 38, 0
2, 1024, Note_off_c, 0, 46, 0
2, 1024, Note_off_c, 0, 50, 0
2, 1024, Note_on_c, 0, 40, 69
2, 1024, Note_on_c, 0, 47, 69
2, 1024, Note_on_c, 0, 52, 69
2, 1536, Note_off_c, 0, 56, 0
2, 1536, Note_off_c, 0, 59, 0
2, 1536, Note_off_c, 0, 64, 0
2, 1536, Note_on_c, 0, 53, 83
2, 1536, Note_on_c, 0, 56, 83
2, 1536, Note_on_c, 0, 61, 83
2, 1536, Note_on_c, 0, 65, 83
2, 1536, Note_off_c, 0, 40, 0
2, 1536, Note_off_c, 0, 47, 0
2, 1536, Note_off_c, 0, 52, 0
2, 1536, Note_on_c, 0, 37, 76
2, 1536, Note_on_c, 0, 44, 76
2, 1536, Note_on_c, 0, 49, 76
2, 2048, Note_off_c, 0, 53, 0
2, 2048, Note_off_c, 0, 56, 0
2, 2048, Note_off_c, 0, 61, 0
2, 2048, Note_off_c, 0, 65, 0
2, 2048, Note_on_c, 0, 52, 73
2, 2048, Note_on_c, 0, 57, 73
2, 2048, Note_on_c, 0, 61, 73
2, 2048, Note_on_c, 0, 64, 73
2, 2048, Note_off_c, 0, 37, 0
2, 2048, Note_off_c, 0, 44, 0
2, 2048, Note_off_c, 0, 49, 0
2, 2048, Note_on_c, 0, 49, 76
2, 2048, Note_on_c, 0, 45, 74
2, 2560, Note_off_c, 0, 52, 0
2, 2560, Note_off_c, 0, 57, 0
2, 2560, Note_off_c, 0, 61, 0
2, 2560, Note_off_c, 0, 64, 0
2, 2560, Note_on_c, 0, 54, 87
2, 2560, Note_on_c, 0, 57, 87
2, 2560, Note_on_c, 0, 61, 87
2, 2560, Note_on_c, 0, 66, 87
2, 2560, Note_off_c, 0, 49, 0
2, 2560, Note_off_c, 0, 45, 0
2, 2560, Note_on_c, 0, 49, 95
2, 2560, Note_on_c, 0, 42, 81
2, 2816, Note_off_c, 0, 49, 0
2, 2816, Note_on_c, 0, 51, 99
2, 3072, Note_off_c, 0, 54, 0
2, 3072, Note_off_c, 0, 57, 0
2, 3072, Note_off_c, 0, 61, 0
2, 3072, Note_off_c, 0, 66, 0
2, 3072, Note_on_c, 0, 56, 120
2, 3072, Note_on_c, 0, 61, 120
2, 3072, Note_on_c, 0, 68, 120
2, 3072, Note_off_c, 0, 42, 0
2, 3072, Note_off_c, 0, 51, 0
2, 3072, Note_on_c, 0, 49, 118
2, 3072, Note_on_c, 0, 53, 118
2, 3328, Note_on_c, 0, 49, 66
2, 3353, Note_off_c, 0, 49, 0
2, 3360, Note_on_c, 0, 37, 66
2, 3385, Note_off_c, 0, 37, 0
2, 3392, Note_on_c, 0, 49, 66
2, 3417, Note_off_c, 0, 49, 0
2, 3424, Note_on_c, 0, 37, 66
2, 3449, Note_off_c, 0, 37, 0
2, 3456, Note_on_c, 0, 49, 66
2, 3481, Note_off_c, 0, 49, 0
2, 3488, Note_on_c, 0, 37, 66
2, 3513, Note_off_c, 0, 37, 0
2, 3520, Note_on_c, 0, 49, 66
2, 3545, Note_off_c, 0, 49, 0
2, 3552, Note_on_c, 0, 37, 66
2, 3577, Note_off_c, 0, 37, 0
2, 3584, Note_on_c, 0, 49, 66
2, 3609, Note_off_c, 0, 49, 0
2, 3616, Note_on_c, 0, 37, 66
2, 3641, Note_off_c, 0, 37, 0
2, 3648, Note_on_c, 0, 49, 66
2, 3673, Note_off_c, 0, 49, 0
2, 3680, Note_on_c, 0, 37, 66
2, 3705, Note_off_c, 0, 37, 0
2, 3712, Note_on_c, 0, 49, 66
2, 3737, Note_off_c, 0, 49, 0
2, 3744, Note_on_c, 0, 37, 66
2, 3769, Note_off_c, 0, 37, 0
2, 3776, Note_on_c, 0, 49, 66
2, 3801, Note_off_c, 0, 49, 0
2, 3808, Note_on_c, 0, 37, 66
2, 3833, Note_off_c, 0, 37, 0
2, 3840, Note_on_c, 0, 49, 66
2, 3865, Note_off_c, 0, 49, 0
2, 3872, Note_on_c, 0, 37, 66
2, 3897, Note_off_c, 0, 37, 0
2, 3904, Note_on_c, 0, 49, 66
2, 3929, Note_off_c, 0, 49, 0
2, 3936, Note_on_c, 0, 37, 66
2, 3961, Note_off_c, 0, 37, 0
2, 3968, Note_on_c, 0, 49, 66
2, 3993, Note_off_c, 0, 49, 0
2, 4000, Note_on_c, 0, 37, 66
2, 4025, Note_off_c, 0, 37, 0
2, 4032, Note_on_c, 0, 49, 66
2, 4057, Note_off_c, 0, 49, 0
2, 4064, Note_on_c, 0, 37, 66
2, 4089, Note_off_c, 0, 37, 0
2, 4096, Note_off_c, 0, 68, 0
2, 4096, Note_on_c, 0, 65, 46
2, 4096, Note_off_c, 0, 49, 0
2, 4096, Note_on_c, 0, 49, 52
2, 4460, Note_off_c, 0, 49, 0
2, 4480, Note_off_c, 0, 56, 0
2, 4480, Note_off_c, 0, 61, 0
2, 4480, Note_off_c, 0, 65, 0
2, 4480, Note_on_c, 0, 56, 41
2, 4480, Note_on_c, 0, 61, 41
2, 4480, Note_on_c, 0, 65, 41
2, 4480, Note_off_c, 0, 53, 0
2, 4480, Note_on_c, 0, 49, 44
2, 4480, Note_on_c, 0, 53, 44
2, 4608, Note_off_c, 0, 56, 0
2, 4608, Note_off_c, 0, 61, 0
2, 4608, Note_off_c, 0, 65, 0
2, 4608, Note_on_c, 0, 56, 43
2, 4608, Note_on_c, 0, 61, 43
2, 4608, Note_on_c, 0, 65, 43
2, 4608, Note_off_c, 0, 49, 0
2, 4608, Note_off_c, 0, 53, 0
2, 4608, Note_on_c, 0, 49, 40
2, 4608, Note_on_c, 0, 53, 40
2, 5216, Note_off_c, 0, 49, 0
2, 5216, Note_off_c, 0, 53, 0
2, 5248, Note_off_c, 0, 56, 0
2, 5248, Note_off_c, 0, 61, 0
2, 5248, Note_off_c, 0, 65, 0
2, 5248, Note_on_c, 0, 56, 44
2, 5248, Note_on_c, 0, 60, 44
2, 5248, Note_on_c, 0, 63, 44
2, 5248, Note_on_c, 0, 51, 41
2, 5376, Note_off_c, 0, 56, 0
2, 5376, Note_off_c, 0, 60, 0
2, 5376, Note_off_c, 0, 63, 0
2, 5376, Note_on_c, 0, 56, 49
2, 5376, Note_on_c, 0, 61, 49
2, 5376, Note_on_c, 0, 65, 49
2, 5376, Note_off_c, 0, 51, 0
2, 5376, Note_on_c, 0, 49, 46
2, 5376, Note_on_c, 0, 53, 46
2, 6144, Note_off_c, 0, 56, 0
2, 6144, Note_off_c, 0, 61, 0
2, 6144, Note_off_c, 0, 65, 0
2, 6144, Note_on_c, 0, 65, 62
2, 6144, Note_on_c, 0, 56, 52
2, 6144, Note_on_c, 0, 61, 52
2, 6144, Note_off_c, 0, 49, 0
2, 6144, Note_off_c, 0, 53, 0
2, 6144, Note_on_c, 0, 44, 52
2, 6144, Note_on_c, 0, 37, 46
2, 6336, Note_on_c, 0, 68, 63
2, 6342, Note_off_c, 0, 65, 0
2, 6400, Note_off_c, 0, 68, 0
2, 6400, Note_on_c, 0, 68, 56
2, 6656, Note_off_c, 0, 56, 0
2, 6656, Note_on_c, 0, 65, 48
2, 6656, Note_on_c, 0, 56, 47
2, 6656, Note_off_c, 0, 44, 0
2, 6656, Note_on_c, 0, 49, 58
2, 6666, Note_off_c, 0, 68, 0
2, 6676, Note_off_c, 0, 61, 0
2, 6848, Note_on_c, 0, 63, 51
2, 6854, Note_off_c, 0, 65, 0
2, 6912, Note_on_c, 0, 61, 49
2, 6914, Note_off_c, 0, 63, 0
2, 7151, Note_off_c, 0, 56, 0
2, 7159, Note_off_c, 0, 61, 0
2, 7168, Note_on_c, 0, 63, 60
2, 7168, Note_on_c, 0, 60, 57
2, 7168, Note_off_c, 0, 37, 0
2, 7168, Note_off_c, 0, 49, 0
2, 7168, Note_on_c, 0, 37, 49
2, 7168, Note_on_c, 0, 44, 49
2, 7353, Note_off_c, 0, 63, 0
2, 7360, Note_on_c, 0, 65, 64
2, 7424, Note_on_c, 0, 68, 72
2, 7425, Note_off_c, 0, 65, 0
2, 7616, Note_on_c, 0, 65, 53
2, 7619, Note_off_c, 0, 68, 0
2, 7680, Note_on_c, 0, 63, 50
2, 7681, Note_off_c, 0, 65, 0
2, 8091, Note_off_c, 0, 60, 0
2, 8166, Note_off_c, 0, 63, 0
2, 8192, Note_on_c, 0, 65, 61
2, 8192, Note_on_c, 0, 56, 52
2, 8192, Note_off_c, 0, 37, 0
2, 8192, Note_off_c, 0, 44, 0
2, 8192, Note_on_c, 0, 44, 58
2, 8192, Note_on_c, 0, 37, 53
2, 8384, Note_on_c, 0, 68, 66
2, 8390, Note_off_c, 0, 65, 0
2, 8448, Note_off_c, 0, 68, 0
2, 8448, Note_on_c, 0, 68, 59
2, 8704, Note_on_c, 0, 65, 55
2, 8704, Note_on_c, 0, 57, 53
2, 8704, Note_on_c, 0, 49, 62
2, 8704, Note_on_c, 0, 41, 57
2, 8714, Note_off_c, 0, 68, 0
2, 8724, Note_off_c, 0, 56, 0
2, 8724, Note_off_c, 0, 44, 0
2, 8724, Note_off_c, 0, 37, 0
2, 8889, Note_off_c, 0, 65, 0
2, 8896, Note_on_c, 0, 63, 60
2, 8960, Note_on_c, 0, 61, 53
2, 8961, Note_off_c, 0, 63, 0
2, 9165, Note_off_c, 0, 57, 0
2, 9165, Note_off_c, 0, 49, 0
2, 9165, Note_off_c, 0, 41, 0
2, 9203, Note_off_c, 0, 61, 0
2, 9216, Note_on_c, 0, 63, 59
2, 9216, Note_on_c, 0, 58, 56
2, 9216, Note_on_c, 0, 49, 58
2, 9216, Note_on_c, 0, 42, 57
2, 9344, Note_on_c, 0, 65, 65
2, 9346, Note_off_c, 0, 63, 0
2, 9472, Note_on_c, 0, 63, 51
2, 9472, Note_on_c, 0, 60, 60
2, 9472, Note_on_c, 0, 44, 52
2, 9474, Note_off_c, 0, 65, 0
2, 9477, Note_off_c, 0, 58, 0
2, 9482, Note_off_c, 0, 49, 0
2, 9482, Note_off_c, 0, 42, 0
2, 9664, Note_on_c, 0, 61, 46
2, 9667, Note_off_c, 0, 63, 0
2, 9728, Note_off_c, 0, 61, 0
2, 9728, Note_on_c, 0, 61, 60
2, 9728, Note_on_c, 0, 53, 48
2, 9728, Note_on_c, 0, 44, 54
2, 9728, Note_on_c, 0, 37, 50
2, 9733, Note_off_c, 0, 60, 0
2, 9738, Note_off_c, 0, 44, 0
2, 10189, Note_off_c, 0, 44, 0
2, 10189, Note_off_c, 0, 37, 0
2, 10214, Note_off_c, 0, 61, 0
2, 10214, Note_off_c, 0, 53, 0
2, 10240, Note_on_c, 0, 70, 83
2, 10240, Note_on_c, 0, 54, 70
2, 10240, Note_on_c, 0, 61, 70
2, 10240, Note_on_c, 0, 58, 65
2, 10432, Note_on_c, 0, 73, 92
2, 10435, Note_off_c, 0, 70, 0
2, 10496, Note_off_c, 0, 73, 0
2, 10496, Note_on_c, 0, 73, 69
2, 10752, Note_on_c, 0, 72, 63
2, 10752, Note_off_c, 0, 58, 0
2, 10752, Note_on_c, 0, 56, 63
2, 10757, Note_off_c, 0, 73, 0
2, 10880, Note_on_c, 0, 68, 58
2, 10882, Note_off_c, 0, 72, 0
2, 11008, Note_on_c, 0, 70, 75
2, 11008, Note_off_c, 0, 56, 0
2, 11008, Note_on_c, 0, 58, 67
2, 11010, Note_off_c, 0, 68, 0
2, 11251, Note_off_c, 0, 70, 0
2, 11264, Note_on_c, 0, 70, 78
2, 11264, Note_off_c, 0, 54, 0
2, 11264, Note_off_c, 0, 61, 0
2, 11264, Note_on_c, 0, 54, 55
2, 11264, Note_on_c, 0, 61, 55
2, 11392, Note_on_c, 0, 73, 77
2, 11394, Note_off_c, 0, 70, 0
2, 11520, Note_on_c, 0, 72, 70
2, 11520, Note_off_c, 0, 58, 0
2, 11520, Note_on_c, 0, 56, 64
2, 11522, Note_off_c, 0, 73, 0
2, 11648, Note_on_c, 0, 68, 63
2, 11650, Note_off_c, 0, 72, 0
2, 11776, Note_on_c, 0, 70, 65
2, 11776, Note_off_c, 0, 56, 0
2, 11776, Note_on_c, 0, 58, 69
2, 11778, Note_off_c, 0, 68, 0
2, 12262, Note_off_c, 0, 70, 0
2, 12288, Note_on_c, 0, 70, 67
2, 12288, Note_off_c, 0, 54, 0
2, 12288, Note_off_c, 0, 61, 0
2, 12288, Note_off_c, 0, 58, 0
2, 12288, Note_on_c, 0, 54, 54
2, 12288, Note_on_c, 0, 61, 54
2, 12288, Note_on_c, 0, 58, 61
2, 12480, Note_on_c, 0, 73, 71
2, 12483, Note_off_c, 0, 70, 0
2, 12544, Note_off_c, 0, 73, 0
2, 12544, Note_on_c, 0, 73, 69
2, 12800, Note_on_c, 0, 72, 68
2, 12800, Note_off_c, 0, 58, 0
2, 12800, Note_on_c, 0, 56, 64
2, 12805, Note_off_c, 0, 73, 0
2, 12928, Note_on_c, 0, 68, 64
2, 12930, Note_off_c, 0, 72, 0
2, 13056, Note_on_c, 0, 70, 79
2, 13056, Note_off_c, 0, 56, 0
2, 13056, Note_on_c, 0, 58, 69
2, 13058, Note_off_c, 0, 68, 0
2, 13299, Note_off_c, 0, 70, 0
2, 13312, Note_on_c, 0, 70, 74
2, 13312, Note_off_c, 0, 54, 0
2, 13312, Note_off_c, 0, 61, 0
2, 13312, Note_on_c, 0, 54, 52
2, 13312, Note_on_c, 0, 61, 52
2, 13440, Note_on_c, 0, 73, 80
2, 13442, Note_off_c, 0, 70, 0
2, 13568, Note_on_c, 0, 72, 70
2, 13568, Note_off_c, 0, 58, 0
2, 13568, Note_on_c, 0, 56, 63
2, 13570, Note_off_c, 0, 73, 0
2, 13696, Note_on_c, 0, 68, 62
2, 13698, Note_off_c, 0, 72, 0
2, 13824, Note_on_c, 0, 70, 70
2, 13824, Note_off_c, 0, 56, 0
2, 13824, Note_on_c, 0, 58, 66
2, 13826, Note_off_c, 0, 68, 0
2, 14310, Note_off_c, 0, 70, 0
2, 14336, Note_on_c, 0, 65, 48
2, 14336, Note_on_c, 0, 56, 60
2, 14336, Note_off_c, 0, 54, 0
2, 14336, Note_off_c, 0, 61, 0
2, 14336, Note_off_c, 0, 58, 0
2, 14336, Note_on_c, 0, 49, 44
2, 14336, Note_on_c, 0, 37, 49
2, 14528, Note_on_c, 0, 68, 51
2, 14531, Note_off_c, 0, 65, 0
2, 14592, Note_off_c, 0, 68, 0
2, 14592, Note_on_c, 0, 68, 58
2, 14848, Note_on_c, 0, 65, 55
2, 14853, Note_off_c, 0, 68, 0
2, 14976, Note_on_c, 0, 63, 51
2, 14978, Note_off_c, 0, 65, 0
2, 15104, Note_on_c, 0, 61, 51
2, 15106, Note_off_c, 0, 63, 0
2, 15308, Note_off_c, 0, 56, 0
2, 15347, Note_off_c, 0, 61, 0
2, 15360, Note_on_c, 0, 63, 57
2, 15360, Note_on_c, 0, 54, 50
2, 15360, Note_off_c, 0, 37, 0
2, 15552, Note_on_c, 0, 65, 58
2, 15555, Note_off_c, 0, 63, 0
2, 15616, Note_on_c, 0, 68, 57
2, 15616, Note_on_c, 0, 51, 48
2, 15616, Note_off_c, 0, 49, 0
2, 15617, Note_off_c, 0, 65, 0
2, 15621, Note_off_c, 0, 54, 0
2, 15808, Note_on_c, 0, 65, 48
2, 15808, Note_on_c, 0, 53, 58
2, 15811, Note_off_c, 0, 68, 0
2, 15811, Note_off_c, 0, 51, 0
2, 15872, Note_on_c, 0, 63, 47
2, 15872, Note_on_c, 0, 54, 62
2, 15872, Note_on_c, 0, 49, 50
2, 15873, Note_off_c, 0, 65, 0
2, 15873, Note_off_c, 0, 53, 0
2, 16358, Note_off_c, 0, 63, 0
2, 16358, Note_off_c, 0, 54, 0
2, 16384, Note_on_c, 0, 65, 61
2, 16384, Note_on_c, 0, 56, 59
2, 16384, Note_off_c, 0, 49, 0
2, 16384, Note_on_c, 0, 53, 61
2, 16384, Note_on_c, 0, 49, 62
2, 16576, Note_on_c, 0, 68, 82
2, 16579, Note_off_c, 0, 65, 0
2, 16640, Note_off_c, 0, 68, 0
2, 16640, Note_on_c, 0, 68, 76
2, 16640, Note_off_c, 0, 53, 0
2, 16640, Note_off_c, 0, 49, 0
2, 16640, Note_on_c, 0, 51, 72
2, 16640, Note_on_c, 0, 48, 75
2, 16896, Note_on_c, 0, 73, 84
2, 16896, Note_on_c, 0, 61, 86
2, 16896, Note_off_c, 0, 51, 0
2, 16896, Note_off_c, 0, 48, 0
2, 16896, Note_on_c, 0, 53, 76
2, 16896, Note_on_c, 0, 46, 74
2, 16901, Note_off_c, 0, 68, 0
2, 16906, Note_off_c, 0, 56, 0
2, 17088, Note_on_c, 0, 75, 85
2, 17088, Note_on_c, 0, 63, 94
2, 17091, Note_off_c, 0, 73, 0
2, 17091, Note_off_c, 0, 61, 0
2, 17152, Note_on_c, 0, 77, 93
2, 17152, Note_on_c, 0, 65, 92
2, 17152, Note_off_c, 0, 46, 0
2, 17152, Note_on_c, 0, 44, 82
2, 17153, Note_off_c, 0, 75, 0
2, 17153, Note_off_c, 0, 63, 0
2, 17395, Note_off_c, 0, 77, 0
2, 17395, Note_off_c, 0, 65, 0
2, 17408, Note_on_c, 0, 75, 93
2, 17408, Note_on_c, 0, 66, 75
2, 17408, Note_off_c, 0, 53, 0
2, 17408, Note_off_c, 0, 44, 0
2, 17408, Note_on_c, 0, 56, 85
2, 17408, Note_on_c, 0, 44, 83
2, 17600, Note_on_c, 0, 73, 90
2, 17603, Note_off_c, 0, 75, 0
2, 17664, Note_on_c, 0, 75, 99
2, 17665, Note_off_c, 0, 73, 0
2, 17792, Note_on_c, 0, 70, 74
2, 17794, Note_off_c, 0, 75, 0
2, 17920, Note_on_c, 0, 73, 87
2, 17920, Note_on_c, 0, 65, 74
2, 17920, Note_off_c, 0, 44, 0
2, 17920, Note_on_c, 0, 49, 77
2, 17922, Note_off_c, 0, 70, 0
2, 17930, Note_off_c, 0, 66, 0
2, 18406, Note_off_c, 0, 73, 0
2, 18406, Note_off_c, 0, 65, 0
2, 18432, Note_on_c, 0, 75, 67
2, 18432, Note_on_c, 0, 70, 79
2, 18432, Note_off_c, 0, 56, 0
2, 18432, Note_off_c, 0, 49, 0
2, 18432, Note_on_c, 0, 61, 98
2, 18432, Note_on_c, 0, 54, 72
2, 18624, Note_on_c, 0, 73, 62
2, 18630, Note_off_c, 0, 75, 0
2, 18688, Note_on_c, 0, 75, 66
2, 18690, Note_off_c, 0, 73, 0
2, 18816, Note_on_c, 0, 70, 54
2, 18816, Note_on_c, 0, 63, 70
2, 18820, Note_off_c, 0, 75, 0
2, 18830, Note_off_c, 0, 70, 0
2, 18944, Note_on_c, 0, 73, 67
2, 18944, Note_on_c, 0, 65, 69
2, 18944, Note_on_c, 0, 56, 95
2, 18944, Note_on_c, 0, 49, 66
2, 18948, Note_off_c, 0, 70, 0
2, 18948, Note_off_c, 0, 63, 0
2, 18964, Note_off_c, 0, 61, 0
2, 18964, Note_off_c, 0, 54, 0
2, 19405, Note_off_c, 0, 73, 0
2, 19405, Note_off_c, 0, 65, 0
2, 19405, Note_off_c, 0, 56, 0
2, 19405, Note_off_c, 0, 49, 0
2, 19456, Note_on_c, 0, 75, 68
2, 19456, Note_on_c, 0, 70, 62
2, 19456, Note_on_c, 0, 61, 62
2, 19456, Note_on_c, 0, 54, 60
2, 19840, Note_on_c, 0, 73, 64
2, 19854, Note_off_c, 0, 75, 0
2, 19968, Note_on_c, 0, 75, 68
2, 19972, Note_off_c, 0, 73, 0
2, 20224, Note_on_c, 0, 70, 59
2, 20224, Note_on_c, 0, 63, 56
2, 20234, Note_off_c, 0, 75, 0
2, 20254, Note_off_c, 0, 70, 0
2, 20454, Note_off_c, 0, 70, 0
2, 20454, Note_off_c, 0, 63, 0
2, 20480, Note_on_c, 0, 65, 64
2, 20480, Note_on_c, 0, 73, 64
2, 20480, Note_off_c, 0, 61, 0
2, 20480, Note_off_c, 0, 54, 0
2, 20480, Note_on_c, 0, 49, 54
2, 20480, Note_on_c, 0, 56, 54
2, 20565, Note_on_c, 0, 37, 51
2, 20650, Note_off_c, 0, 37, 0
2, 20650, Note_on_c, 0, 44, 58
2, 20736, Note_off_c, 0, 44, 0
2, 20736, Note_on_c, 0, 49, 54
2, 20821, Note_on_c, 0, 53, 59
2, 20906, Note_on_c, 0, 56, 64
2, 20992, Note_on_c, 0, 61, 71
2, 21077, Note_on_c, 0, 65, 44
2, 21162, Note_on_c, 0, 68, 47
2, 21163, Note_off_c, 0, 65, 0
2, 21248, Note_on_c, 0, 73, 61
2, 21249, Note_off_c, 0, 68, 0
2, 21333, Note_on_c, 0, 77, 70
2, 21334, Note_off_c, 0, 73, 0
2, 21418, Note_on_c, 0, 80, 59
2, 21419, Note_off_c, 0, 77, 0
2, 21499, Note_off_c, 0, 80, 0
2, 21504, Note_off_c, 0, 65, 0
2, 21504, Note_off_c, 0, 73, 0
2, 21504, Note_on_c, 0, 73, 61
2, 21504, Note_on_c, 0, 77, 61
2, 21504, Note_on_c, 0, 80, 61
2, 21504, Note_on_c, 0, 85, 61
2, 21504, Note_off_c, 0, 49, 0
2, 21504, Note_off_c, 0, 56, 0
2, 21504, Note_off_c, 0, 49, 0
2, 21504, Note_off_c, 0, 53, 0
2, 21504, Note_off_c, 0, 56, 0
2, 21504, Note_off_c, 0, 61, 0
2, 21504, Note_on_c, 0, 61, 75
2, 21504, Note_on_c, 0, 68, 75
2, 22016, Note_off_c, 0, 73, 0
2, 22016, Note_off_c, 0, 77, 0
2, 22016, Note_off_c, 0, 80, 0
2, 22016, Note_off_c, 0, 85, 0
2, 22016, Note_on_c, 0, 74, 58
2, 22016, Note_on_c, 0, 79, 58
2, 22016, Note_on_c, 0, 86, 58
2, 22016, Note_off_c, 0, 61, 0
2, 22016, Note_off_c, 0, 68, 0
2, 22016, Note_on_c, 0, 59, 61
2, 22016, Note_on_c, 0, 67, 61
2, 22528, Note_off_c, 0, 74, 0
2, 22528, Note_off_c, 0, 79, 0
2, 22528, Note_off_c, 0, 86, 0
2, 22528, Note_on_c, 0, 73, 60
2, 22528, Note_on_c, 0, 77, 60
2, 22528, Note_on_c, 0, 80, 60
2, 22528, Note_on_c, 0, 85, 60
2, 22528, Note_off_c, 0, 59, 0
2, 22528, Note_off_c, 0, 67, 0
2, 22528, Note_on_c, 0, 61, 74
2, 22528, Note_on_c, 0, 68, 74
2, 23040, Note_off_c, 0, 73, 0
2, 23040, Note_off_c, 0, 77, 0
2, 23040, Note_off_c, 0, 80, 0
2, 23040, Note_off_c, 0, 85, 0
2, 23040, Note_on_c, 0, 74, 71
2, 23040, Note_on_c, 0, 77, 71
2, 23040, Note_on_c, 0, 82, 71
2, 23040, Note_on_c, 0, 86, 71
2, 23040, Note_off_c, 0, 61, 0
2, 23040, Note_off_c, 0, 68, 0
2, 23040, Note_on_c, 0, 58, 76
2, 23040, Note_on_c, 0, 65, 76
2, 23040, Note_on_c, 0, 70, 76
2, 23552, Note_off_c, 0, 74, 0
2, 23552, Note_off_c, 0, 77, 0
2, 23552, Note_off_c, 0, 82, 0
2, 23552, Note_off_c, 0, 86, 0
2, 23552, Note_on_c, 0, 78, 105
2, 23552, Note_on_c, 0, 82, 105
2, 23552, Note_on_c, 0, 85, 105
2, 23552, Note_off_c, 0, 58, 0
2, 23552, Note_off_c, 0, 65, 0
2, 23552, Note_off_c, 0, 70, 0
2, 23552, Note_on_c, 0, 70, 81
2, 23552, Note_on_c, 0, 73, 81
2, 23552, Note_on_c, 0, 66, 84
2, 24064, Note_off_c, 0, 78, 0
2, 24064, Note_off_c, 0, 82, 0
2, 24064, Note_off_c, 0, 85, 0
2, 24064, Note_on_c, 0, 75, 91
2, 24064, Note_on_c, 0, 78, 91
2, 24064, Note_on_c, 0, 87, 91
2, 24064, Note_on_c, 0, 82, 50
2, 24064, Note_off_c, 0, 70, 0
2, 24064, Note_off_c, 0, 73, 0
2, 24064, Note_off_c, 0, 66, 0
2, 24064, Note_on_c, 0, 70, 89
2, 24064, Note_on_c, 0, 63, 84
2, 24064, Note_on_c, 0, 66, 84
2, 24320, Note_off_c, 0, 82, 0
2, 24320, Note_on_c, 0, 84, 64
2, 24320, Note_off_c, 0, 70, 0
2, 24320, Note_on_c, 0, 72, 97
2, 24576, Note_off_c, 0, 75, 0
2, 24576, Note_off_c, 0, 78, 0
2, 24576, Note_off_c, 0, 87, 0
2, 24576, Note_off_c, 0, 84, 0
2, 24576, Note_on_c, 0, 77, 116
2, 24576, Note_on_c, 0, 80, 116
2, 24576, Note_on_c, 0, 85, 116
2, 24576, Note_on_c, 0, 89, 116
2, 24576, Note_off_c, 0, 63, 0
2, 24576, Note_off_c, 0, 66, 0
2, 24576, Note_off_c, 0, 72, 0
2, 24576, Note_on_c, 0, 61, 110
2, 24576, Note_on_c, 0, 68, 110
2, 24576, Note_on_c, 0, 73, 110
2, 25088, Note_off_c, 0, 61, 0
2, 25088, Note_off_c, 0, 68, 0
2, 25088, Note_off_c, 0, 73, 0
2, 25088, Note_on_c, 0, 49, 76
2, 25088, Note_on_c, 0, 56, 76
2, 25088, Note_on_c, 0, 61, 76
2, 25856, Note_off_c, 0, 77, 0
2, 25856, Note_off_c, 0, 80, 0
2, 25856, Note_off_c, 0, 85, 0
2, 25856, Note_off_c, 0, 89, 0
2, 26112, Note_on_c, 0, 77, 53
2, 26112, Note_on_c, 0, 68, 55
2, 26240, Note_off_c, 0, 49, 0
2, 26240, Note_off_c, 0, 56, 0
2, 26240, Note_off_c, 0, 61, 0
2, 26624, Note_on_c, 0, 61, 47
2, 26624, Note_on_c, 0, 56, 52
2, 26752, Note_off_c, 0, 61, 0
2, 26752, Note_on_c, 0, 65, 59
2, 26816, Note_off_c, 0, 77, 0
2, 26816, Note_on_c, 0, 80, 69
2, 26880, Note_off_c, 0, 80, 0
2, 26880, Note_on_c, 0, 80, 67
2, 26880, Note_off_c, 0, 65, 0
2, 26880, Note_on_c, 0, 65, 57
2, 27136, Note_off_c, 0, 80, 0
2, 27136, Note_on_c, 0, 78, 69
2, 27136, Note_off_c, 0, 65, 0
2, 27136, Note_on_c, 0, 63, 53
2, 27264, Note_on_c, 0, 75, 61
2, 27264, Note_off_c, 0, 63, 0
2, 27264, Note_on_c, 0, 60, 50
2, 27266, Note_off_c, 0, 78, 0
2, 27392, Note_on_c, 0, 77, 64
2, 27392, Note_off_c, 0, 60, 0
2, 27392, Note_on_c, 0, 61, 54
2, 27394, Note_off_c, 0, 75, 0
2, 27635, Note_off_c, 0, 77, 0
2, 27648, Note_off_c, 0, 68, 0
2, 27648, Note_on_c, 0, 73, 58
2, 27648, Note_on_c, 0, 65, 50
2, 27648, Note_off_c, 0, 56, 0
2, 27648, Note_off_c, 0, 61, 0
2, 27648, Note_on_c, 0, 58, 50
2, 27648, Note_on_c, 0, 49, 52
2, 27776, Note_on_c, 0, 77, 62
2, 27776, Note_on_c, 0, 61, 54
2, 27778, Note_off_c, 0, 73, 0
2, 27778, Note_off_c, 0, 58, 0
2, 27904, Note_on_c, 0, 75, 62
2, 27904, Note_on_c, 0, 60, 56
2, 27906, Note_off_c, 0, 77, 0
2, 27906, Note_off_c, 0, 61, 0
2, 28032, Note_on_c, 0, 72, 59
2, 28032, Note_on_c, 0, 56, 55
2, 28034, Note_off_c, 0, 75, 0
2, 28034, Note_off_c, 0, 60, 0
2, 28160, Note_on_c, 0, 73, 64
2, 28160, Note_on_c, 0, 58, 57
2, 28162, Note_off_c, 0, 72, 0
2, 28162, Note_off_c, 0, 56, 0
2, 28620, Note_off_c, 0, 65, 0
2, 28620, Note_off_c, 0, 49, 0
2, 28646, Note_off_c, 0, 73, 0
2, 28646, Note_off_c, 0, 58, 0
2, 28672, Note_on_c, 0, 77, 72
2, 28672, Note_on_c, 0, 68, 57
2, 28672, Note_on_c, 0, 61, 62
2, 28672, Note_on_c, 0, 56, 63
2, 28800, Note_off_c, 0, 61, 0
2, 28800, Note_on_c, 0, 65, 60
2, 28864, Note_on_c, 0, 80, 78
2, 28867, Note_off_c, 0, 77, 0
2, 28924, Note_off_c, 0, 80, 0
2, 28928, Note_on_c, 0, 80, 64
2, 28928, Note_off_c, 0, 65, 0
2, 28928, Note_on_c, 0, 65, 58
2, 29184, Note_off_c, 0, 80, 0
2, 29184, Note_on_c, 0, 78, 61
2, 29184, Note_off_c, 0, 65, 0
2, 29184, Note_on_c, 0, 63, 55
2, 29312, Note_on_c, 0, 75, 59
2, 29312, Note_off_c, 0, 63, 0
2, 29312, Note_on_c, 0, 60, 49
2, 29314, Note_off_c, 0, 78, 0
2, 29440, Note_on_c, 0, 77, 70
2, 29440, Note_off_c, 0, 60, 0
2, 29440, Note_on_c, 0, 61, 52
2, 29442, Note_off_c, 0, 75, 0
2, 29644, Note_off_c, 0, 68, 0
2, 29683, Note_off_c, 0, 77, 0
2, 29696, Note_on_c, 0, 73, 59
2, 29696, Note_on_c, 0, 65, 51
2, 29696, Note_off_c, 0, 56, 0
2, 29696, Note_off_c, 0, 61, 0
2, 29696, Note_on_c, 0, 58, 53
2, 29696, Note_on_c, 0, 49, 55
2, 29824, Note_on_c, 0, 77, 67
2, 29824, Note_on_c, 0, 61, 62
2, 29826, Note_off_c, 0, 73, 0
2, 29826, Note_off_c, 0, 58, 0
2, 29952, Note_on_c, 0, 75, 67
2, 29952, Note_on_c, 0, 60, 55
2, 29954, Note_off_c, 0, 77, 0
2, 29954, Note_off_c, 0, 61, 0
2, 30080, Note_on_c, 0, 72, 62
2, 30080, Note_on_c, 0, 56, 52
2, 30082, Note_off_c, 0, 75, 0
2, 30082, Note_off_c, 0, 60, 0
2, 30208, Note_on_c, 0, 73, 67
2, 30208, Note_on_c, 0, 58, 55
2, 30210, Note_off_c, 0, 72, 0
2, 30210, Note_off_c, 0, 56, 0
2, 30304, Note_off_c, 0, 65, 0
2, 30336, Note_on_c, 0, 65, 70
2, 30592, Note_off_c, 0, 65, 0
2, 30592, Note_on_c, 0, 65, 68
2, 30668, Note_off_c, 0, 49, 0
2, 30694, Note_off_c, 0, 73, 0
2, 30694, Note_off_c, 0, 58, 0
2, 30720, Note_on_c, 0, 73, 59
2, 30720, Note_on_c, 0, 58, 53
2, 30720, Note_on_c, 0, 49, 56
2, 30848, Note_on_c, 0, 77, 64
2, 30848, Note_on_c, 0, 61, 58
2, 30850, Note_off_c, 0, 73, 0
2, 30850, Note_off_c, 0, 58, 0
2, 30976, Note_on_c, 0, 75, 64
2, 30976, Note_on_c, 0, 60, 51
2, 30978, Note_off_c, 0, 77, 0
2, 30978, Note_off_c, 0, 61, 0
2, 31104, Note_on_c, 0, 72, 55
2, 31104, Note_on_c, 0, 56, 51
2, 31106, Note_off_c, 0, 75, 0
2, 31106, Note_off_c, 0, 60, 0
2, 31232, Note_on_c, 0, 73, 66
2, 31232, Note_on_c, 0, 58, 58
2, 31234, Note_off_c, 0, 72, 0
2, 31234, Note_off_c, 0, 56, 0
2, 31360, Note_off_c, 0, 65, 0
2, 31360, Note_on_c, 0, 65, 65
2, 31616, Note_off_c, 0, 65, 0
2, 31616, Note_on_c, 0, 65, 66
2, 31718, Note_off_c, 0, 73, 0
2, 31718, Note_off_c, 0, 58, 0
2, 31744, Note_on_c, 0, 73, 65
2, 31744, Note_on_c, 0, 58, 64
2, 31872, Note_on_c, 0, 77, 70
2, 31872, Note_on_c, 0, 61, 69
2, 31874, Note_off_c, 0, 73, 0
2, 31874, Note_off_c, 0, 58, 0
2, 32000, Note_on_c, 0, 75, 59
2, 32000, Note_on_c, 0, 60, 59
2, 32002, Note_off_c, 0, 77, 0
2, 32002, Note_off_c, 0, 61, 0
2, 32128, Note_on_c, 0, 72, 55
2, 32128, Note_on_c, 0, 56, 56
2, 32130, Note_off_c, 0, 75, 0
2, 32130, Note_off_c, 0, 60, 0
2, 32256, Note_on_c, 0, 73, 69
2, 32256, Note_on_c, 0, 58, 66
2, 32258, Note_off_c, 0, 72, 0
2, 32258, Note_off_c, 0, 56, 0
2, 32384, Note_on_c, 0, 70, 64
2, 32384, Note_on_c, 0, 54, 63
2, 32386, Note_off_c, 0, 73, 0
2, 32386, Note_off_c, 0, 58, 0
2, 32512, Note_on_c, 0, 72, 65
2, 32512, Note_on_c, 0, 56, 68
2, 32514, Note_off_c, 0, 70, 0
2, 32514, Note_off_c, 0, 54, 0
2, 32640, Note_on_c, 0, 68, 62
2, 32640, Note_on_c, 0, 53, 64
2, 32642, Note_off_c, 0, 72, 0
2, 32642, Note_off_c, 0, 56, 0
2, 32665, Note_off_c, 0, 49, 0
2, 32761, Note_off_c, 0, 68, 0
2, 32761, Note_off_c, 0, 53, 0
2, 32768, Note_on_c, 0, 73, 74
2, 32768, Note_on_c, 0, 58, 70
2, 32768, Note_on_c, 0, 49, 76
2, 32896, Note_on_c, 0, 77, 69
2, 32896, Note_on_c, 0, 61, 71
2, 32898, Note_off_c, 0, 58, 0
2, 32900, Note_off_c, 0, 73, 0
2, 33024, Note_on_c, 0, 75, 65
2, 33024, Note_on_c, 0, 60, 70
2, 33026, Note_off_c, 0, 61, 0
2, 33028, Note_off_c, 0, 77, 0
2, 33152, Note_on_c, 0, 72, 67
2, 33152, Note_on_c, 0, 56, 69
2, 33154, Note_off_c, 0, 60, 0
2, 33156, Note_off_c, 0, 75, 0
2, 33280, Note_on_c, 0, 73, 80
2, 33280, Note_on_c, 0, 58, 79
2, 33282, Note_off_c, 0, 56, 0
2, 33284, Note_off_c, 0, 72, 0
2, 33408, Note_on_c, 0, 70, 81
2, 33408, Note_on_c, 0, 54, 76
2, 33410, Note_off_c, 0, 58, 0
2, 33412, Note_off_c, 0, 73, 0
2, 33536, Note_on_c, 0, 72, 84
2, 33536, Note_on_c, 0, 56, 77
2, 33538, Note_off_c, 0, 54, 0
2, 33540, Note_off_c, 0, 70, 0
2, 33664, Note_on_c, 0, 68, 85
2, 33664, Note_on_c, 0, 53, 77
2, 33666, Note_off_c, 0, 56, 0
2, 33668, Note_off_c, 0, 72, 0
2, 33785, Note_off_c, 0, 53, 0
2, 33787, Note_off_c, 0, 68, 0
2, 33792, Note_off_c, 0, 65, 0
2, 33792, Note_on_c, 0, 73, 82
2, 33792, Note_on_c, 0, 65, 67
2, 33792, Note_on_c, 0, 58, 85
2, 33920, Note_on_c, 0, 70, 76
2, 33920, Note_on_c, 0, 54, 78
2, 33922, Note_off_c, 0, 58, 0
2, 33924, Note_off_c, 0, 73, 0
2, 34048, Note_on_c, 0, 72, 74
2, 34048, Note_on_c, 0, 56, 85
2, 34050, Note_off_c, 0, 54, 0
2, 34052, Note_off_c, 0, 70, 0
2, 34176, Note_on_c, 0, 68, 67
2, 34176, Note_on_c, 0, 53, 72
2, 34178, Note_off_c, 0, 56, 0
2, 34180, Note_off_c, 0, 72, 0
2, 34227, Note_off_c, 0, 49, 0
2, 34278, Note_off_c, 0, 65, 0
2, 34297, Note_off_c, 0, 53, 0
2, 34299, Note_off_c, 0, 68, 0
2, 34304, Note_on_c, 0, 73, 84
2, 34304, Note_on_c, 0, 65, 70
2, 34304, Note_on_c, 0, 58, 77
2, 34304, Note_on_c, 0, 49, 74
2, 34560, Note_on_c, 0, 66, 67
2, 34560, Note_on_c, 0, 57, 67
2, 34565, Note_off_c, 0, 58, 0
2, 34570, Note_off_c, 0, 65, 0
2, 34816, Note_on_c, 0, 64, 70
2, 34816, Note_on_c, 0, 67, 70
2, 34826, Note_off_c, 0, 66, 0
2, 35047, Note_off_c, 0, 73, 0
2, 35072, Note_on_c, 0, 71, 60
2, 35200, Note_on_c, 0, 69, 56
2, 35202, Note_off_c, 0, 71, 0
2, 35276, Note_off_c, 0, 49, 0
2, 35277, Note_off_c, 0, 64, 0
2, 35277, Note_off_c, 0, 67, 0
2, 35289, Note_off_c, 0, 57, 0
2, 35321, Note_off_c, 0, 69, 0
2, 35328, Note_on_c, 0, 65, 36
2, 35328, Note_on_c, 0, 49, 54
2, 35328, Note_on_c, 0, 56, 54
2, 35520, Note_on_c, 0, 68, 38
2, 35523, Note_off_c, 0, 65, 0
2, 35584, Note_off_c, 0, 68, 0
2, 35584, Note_on_c, 0, 68, 49
2, 35584, Note_off_c, 0, 49, 0
2, 35584, Note_off_c, 0, 56, 0
2, 35584, Note_on_c, 0, 44, 50
2, 35584, Note_on_c, 0, 49, 50
2, 35840, Note_on_c, 0, 65, 42
2, 35845, Note_off_c, 0, 68, 0
2, 36032, Note_on_c, 0, 63, 39
2, 36035, Note_off_c, 0, 65, 0
2, 36096, Note_on_c, 0, 61, 35
2, 36097, Note_off_c, 0, 63, 0
2, 36339, Note_off_c, 0, 61, 0
2, 36352, Note_on_c, 0, 63, 48
2, 36352, Note_on_c, 0, 54, 67
2, 36544, Note_on_c, 0, 65, 49
2, 36550, Note_off_c, 0, 63, 0
2, 36608, Note_on_c, 0, 68, 51
2, 36608, Note_on_c, 0, 58, 54
2, 36610, Note_off_c, 0, 65, 0
2, 36618, Note_off_c, 0, 54, 0
2, 36800, Note_on_c, 0, 65, 45
2, 36800, Note_on_c, 0, 56, 54
2, 36806, Note_off_c, 0, 68, 0
2, 36806, Note_off_c, 0, 58, 0
2, 36864, Note_on_c, 0, 63, 46
2, 36864, Note_on_c, 0, 54, 59
2, 36866, Note_off_c, 0, 65, 0
2, 36866, Note_off_c, 0, 56, 0
2, 36992, Note_on_c, 0, 68, 50
2, 36992, Note_on_c, 0, 58, 82
2, 36992, Note_on_c, 0, 66, 82
2, 36996, Note_off_c, 0, 63, 0
2, 36996, Note_off_c, 0, 54, 0
2, 37115, Note_off_c, 0, 58, 0
2, 37115, Note_off_c, 0, 66, 0
2, 37120, Note_on_c, 0, 56, 64
2, 37120, Note_on_c, 0, 65, 64
2, 37248, Note_on_c, 0, 54, 66
2, 37248, Note_on_c, 0, 63, 66
2, 37250, Note_off_c, 0, 56, 0
2, 37250, Note_off_c, 0, 65, 0
2, 37337, Note_off_c, 0, 68, 0
2, 37369, Note_off_c, 0, 54, 0
2, 37369, Note_off_c, 0, 63, 0
2, 37376, Note_on_c, 0, 65, 70
2, 37376, Note_on_c, 0, 61, 62
2, 37376, Note_off_c, 0, 44, 0
2, 37376, Note_off_c, 0, 49, 0
2, 37376, Note_on_c, 0, 49, 73
2, 37376, Note_on_c, 0, 53, 73
2, 37568, Note_on_c, 0, 68, 86
2, 37571, Note_off_c, 0, 65, 0
2, 37632, Note_off_c, 0, 68, 0
2, 37632, Note_on_c, 0, 68, 81
2, 37632, Note_on_c, 0, 63, 66
2, 37632, Note_on_c, 0, 48, 81
2, 37632, Note_on_c, 0, 60, 81
2, 37637, Note_off_c, 0, 61, 0
2, 37637, Note_off_c, 0, 49, 0
2, 37637, Note_off_c, 0, 53, 0
2, 37875, Note_off_c, 0, 68, 0
2, 37875, Note_off_c, 0, 63, 0
2, 37875, Note_off_c, 0, 48, 0
2, 37875, Note_off_c, 0, 60, 0
2, 37888, Note_on_c, 0, 73, 97
2, 37888, Note_on_c, 0, 65, 93
2, 37888, Note_on_c, 0, 46, 75
2, 37888, Note_on_c, 0, 58, 75
2, 38080, Note_on_c, 0, 75, 106
2, 38080, Note_on_c, 0, 66, 98
2, 38083, Note_off_c, 0, 73, 0
2, 38083, Note_off_c, 0, 65, 0
2, 38144, Note_on_c, 0, 77, 104
2, 38144, Note_on_c, 0, 68, 94
2, 38144, Note_on_c, 0, 44, 88
2, 38144, Note_on_c, 0, 56, 88
2, 38145, Note_off_c, 0, 75, 0
2, 38145, Note_off_c, 0, 66, 0
2, 38149, Note_off_c, 0, 46, 0
2, 38149, Note_off_c, 0, 58, 0
2, 38387, Note_off_c, 0, 77, 0
2, 38387, Note_off_c, 0, 68, 0
2, 38387, Note_off_c, 0, 44, 0
2, 38387, Note_off_c, 0, 56, 0
2, 38400, Note_on_c, 0, 75, 75
2, 38400, Note_on_c, 0, 66, 81
2, 38400, Note_on_c, 0, 54, 109
2, 38400, Note_on_c, 0, 49, 89
2, 38592, Note_on_c, 0, 73, 85
2, 38595, Note_off_c, 0, 75, 0
2, 38656, Note_on_c, 0, 75, 87
2, 38657, Note_off_c, 0, 73, 0
2, 38784, Note_on_c, 0, 70, 71
2, 38786, Note_off_c, 0, 75, 0
2, 38912, Note_on_c, 0, 73, 78
2, 38912, Note_on_c, 0, 65, 73
2, 38912, Note_off_c, 0, 54, 0
2, 38912, Note_off_c, 0, 49, 0
2, 38912, Note_on_c, 0, 56, 77
2, 38912, Note_on_c, 0, 49, 77
2, 38914, Note_off_c, 0, 70, 0
2, 38922, Note_off_c, 0, 66, 0
2, 39398, Note_off_c, 0, 73, 0
2, 39398, Note_off_c, 0, 65, 0
2, 39424, Note_on_c, 0, 75, 79
2, 39424, Note_on_c, 0, 70, 73
2, 39424, Note_off_c, 0, 56, 0
2, 39424, Note_off_c, 0, 49, 0
2, 39424, Note_on_c, 0, 61, 87
2, 39424, Note_on_c, 0, 54, 76
2, 39616, Note_on_c, 0, 73, 78
2, 39622, Note_off_c, 0, 75, 0
2, 39680, Note_on_c, 0, 75, 79
2, 39682, Note_off_c, 0, 73, 0
2, 39784, Note_off_c, 0, 70, 0
2, 39808, Note_on_c, 0, 70, 69
2, 39808, Note_on_c, 0, 63, 56
2, 39812, Note_off_c, 0, 75, 0
2, 39936, Note_on_c, 0, 73, 68
2, 39936, Note_on_c, 0, 65, 65
2, 39936, Note_on_c, 0, 56, 62
2, 39936, Note_on_c, 0, 49, 62
2, 39940, Note_off_c, 0, 70, 0
2, 39940, Note_off_c, 0, 63, 0
2, 39956, Note_off_c, 0, 61, 0
2, 39956, Note_off_c, 0, 54, 0
2, 40397, Note_off_c, 0, 73, 0
2, 40397, Note_off_c, 0, 65, 0
2, 40397, Note_off_c, 0, 56, 0
2, 40397, Note_off_c, 0, 49, 0
2, 40448, Note_on_c, 0, 75, 65
2, 40448, Note_on_c, 0, 70, 62
2, 40448, Note_on_c, 0, 54, 62
2, 40448, Note_on_c, 0, 61, 62
2, 40832, Note_on_c, 0, 73, 66
2, 40839, Note_off_c, 0, 75, 0
2, 40960, Note_on_c, 0, 75, 68
2, 40962, Note_off_c, 0, 73, 0
2, 41216, Note_on_c, 0, 70, 59
2, 41216, Note_on_c, 0, 63, 53
2, 41221, Note_off_c, 0, 75, 0
2, 41231, Note_off_c, 0, 70, 0
2, 41459, Note_off_c, 0, 70, 0
2, 41459, Note_off_c, 0, 63, 0
2, 41472, Note_on_c, 0, 61, 57
2, 41472, Note_on_c, 0, 65, 57
2, 41472, Note_off_c, 0, 54, 0
2, 41472, Note_off_c, 0, 61, 0
2, 41472, Note_on_c, 0, 44, 55
2, 41472, Note_on_c, 0, 49, 55
2, 41472, Note_on_c, 0, 37, 50
2, 41664, Note_off_c, 0, 65, 0
2, 41664, Note_on_c, 0, 65, 68
2, 41664, Note_on_c, 0, 68, 68
2, 41667, Note_off_c, 0, 61, 0
2, 41728, Note_off_c, 0, 65, 0
2, 41728, Note_off_c, 0, 68, 0
2, 41728, Note_on_c, 0, 65, 68
2, 41728, Note_on_c, 0, 68, 68
2, 41971, Note_off_c, 0, 65, 0
2, 41971, Note_off_c, 0, 68, 0
2, 41984, Note_on_c, 0, 61, 70
2, 41984, Note_on_c, 0, 65, 70
2, 42112, Note_on_c, 0, 56, 66
2, 42112, Note_on_c, 0, 63, 66
2, 42114, Note_off_c, 0, 61, 0
2, 42114, Note_off_c, 0, 65, 0
2, 42240, Note_on_c, 0, 53, 64
2, 42240, Note_on_c, 0, 61, 64
2, 42242, Note_off_c, 0, 56, 0
2, 42242, Note_off_c, 0, 63, 0
2, 42483, Note_off_c, 0, 53, 0
2, 42483, Note_off_c, 0, 61, 0
2, 42496, Note_on_c, 0, 61, 89
2, 42496, Note_on_c, 0, 65, 89
2, 42496, Note_off_c, 0, 44, 0
2, 42496, Note_off_c, 0, 49, 0
2, 42496, Note_off_c, 0, 37, 0
2, 42496, Note_on_c, 0, 49, 64
2, 42496, Note_on_c, 0, 37, 65
2, 42688, Note_off_c, 0, 65, 0
2, 42688, Note_on_c, 0, 65, 87
2, 42688, Note_on_c, 0, 68, 87
2, 42691, Note_off_c, 0, 61, 0
2, 42752, Note_off_c, 0, 65, 0
2, 42752, Note_off_c, 0, 68, 0
2, 42752, Note_on_c, 0, 65, 77
2, 42752, Note_on_c, 0, 68, 77
2, 42995, Note_off_c, 0, 65, 0
2, 42995, Note_off_c, 0, 68, 0
2, 43008, Note_on_c, 0, 61, 71
2, 43008, Note_on_c, 0, 65, 71
2, 43136, Note_on_c, 0, 56, 66
2, 43136, Note_on_c, 0, 63, 66
2, 43138, Note_off_c, 0, 61, 0
2, 43138, Note_off_c, 0, 65, 0
2, 43264, Note_on_c, 0, 53, 67
2, 43264, Note_on_c, 0, 61, 67
2, 43266, Note_off_c, 0, 56, 0
2, 43266, Note_off_c, 0, 63, 0
2, 43507, Note_off_c, 0, 53, 0
2, 43507, Note_off_c, 0, 61, 0
2, 43520, Note_on_c, 0, 61, 67
2, 43520, Note_on_c, 0, 65, 67
2, 43520, Note_off_c, 0, 49, 0
2, 43520, Note_off_c, 0, 37, 0
2, 43520, Note_on_c, 0, 37, 56
2, 43712, Note_off_c, 0, 65, 0
2, 43712, Note_on_c, 0, 65, 72
2, 43712, Note_on_c, 0, 68, 72
2, 43715, Note_off_c, 0, 61, 0
2, 43776, Note_off_c, 0, 65, 0
2, 43776, Note_off_c, 0, 68, 0
2, 43776, Note_on_c, 0, 65, 64
2, 43776, Note_on_c, 0, 68, 64
2, 44019, Note_off_c, 0, 65, 0
2, 44019, Note_off_c, 0, 68, 0
2, 44032, Note_on_c, 0, 61, 57
2, 44032, Note_on_c, 0, 65, 57
2, 44224, Note_off_c, 0, 65, 0
2, 44224, Note_on_c, 0, 65, 67
2, 44224, Note_on_c, 0, 68, 67
2, 44227, Note_off_c, 0, 61, 0
2, 44288, Note_off_c, 0, 65, 0
2, 44288, Note_off_c, 0, 68, 0
2, 44288, Note_on_c, 0, 65, 62
2, 44288, Note_on_c, 0, 68, 62
2, 44531, Note_off_c, 0, 65, 0
2, 44531, Note_off_c, 0, 68, 0
2, 44544, Note_on_c, 0, 65, 45
2, 44544, Note_on_c, 0, 61, 55
2, 44736, Note_on_c, 0, 68, 46
2, 44739, Note_off_c, 0, 65, 0
2, 44787, Note_off_c, 0, 61, 0
2, 44796, Note_off_c, 0, 68, 0
2, 44800, Note_on_c, 0, 68, 55
2, 44800, Note_off_c, 0, 37, 0
2, 45568, Note_off_c, 0, 68, 0
2, 45568, Note_on_c, 0, 76, 65
2, 45568, Note_on_c, 0, 68, 51
2, 45568, Note_on_c, 0, 61, 65
2, 45653, Note_on_c, 0, 75, 52
2, 45654, Note_off_c, 0, 76, 0
2, 45738, Note_on_c, 0, 73, 48
2, 45739, Note_off_c, 0, 75, 0
2, 45824, Note_off_c, 0, 73, 0
2, 45824, Note_on_c, 0, 73, 57
2, 46080, Note_off_c, 0, 68, 0
2, 46080, Note_off_c, 0, 61, 0
2, 46080, Note_on_c, 0, 66, 47
2, 46080, Note_on_c, 0, 57, 56
2, 46208, Note_on_c, 0, 76, 73
2, 46215, Note_off_c, 0, 73, 0
2, 46336, Note_on_c, 0, 75, 66
2, 46338, Note_off_c, 0, 76, 0
2, 46464, Note_on_c, 0, 73, 57
2, 46466, Note_off_c, 0, 75, 0
2, 46585, Note_off_c, 0, 73, 0
2, 46592, Note_on_c, 0, 76, 69
2, 46592, Note_off_c, 0, 66, 0
2, 46592, Note_off_c, 0, 57, 0
2, 46592, Note_on_c, 0, 68, 68
2, 46592, Note_on_c, 0, 61, 61
2, 46677, Note_on_c, 0, 75, 64
2, 46678, Note_off_c, 0, 76, 0
2, 46762, Note_on_c, 0, 73, 64
2, 46763, Note_off_c, 0, 75, 0
2, 46848, Note_off_c, 0, 73, 0
2, 46848, Note_on_c, 0, 73, 72
2, 47104, Note_off_c, 0, 68, 0
2, 47104, Note_off_c, 0, 61, 0
2, 47104, Note_on_c, 0, 66, 71
2, 47104, Note_on_c, 0, 57, 72
2, 47232, Note_on_c, 0, 76, 84
2, 47239, Note_off_c, 0, 73, 0
2, 47360, Note_on_c, 0, 75, 78
2, 47362, Note_off_c, 0, 76, 0
2, 47488, Note_on_c, 0, 73, 85
2, 47490, Note_off_c, 0, 75, 0
2, 47609, Note_off_c, 0, 73, 0
2, 47616, Note_on_c, 0, 71, 78
2, 47616, Note_off_c, 0, 66, 0
2, 47616, Note_off_c, 0, 57, 0
2, 47616, Note_on_c, 0, 63, 67
2, 47616, Note_on_c, 0, 56, 71
2, 47701, Note_on_c, 0, 68, 71
2, 47702, Note_off_c, 0, 71, 0
2, 47786, Note_on_c, 0, 71, 91
2, 47787, Note_off_c, 0, 68, 0
2, 47872, Note_on_c, 0, 73, 101
2, 47872, Note_off_c, 0, 63, 0
2, 47872, Note_on_c, 0, 64, 74
2, 47873, Note_off_c, 0, 71, 0
2, 48128, Note_on_c, 0, 69, 91
2, 48128, Note_off_c, 0, 56, 0
2, 48128, Note_on_c, 0, 54, 72
2, 48133, Note_off_c, 0, 73, 0
2, 48192, Note_on_c, 0, 73, 112
2, 48193, Note_off_c, 0, 69, 0
2, 48256, Note_on_c, 0, 71, 104
2, 48257, Note_off_c, 0, 73, 0
2, 48320, Note_on_c, 0, 69, 71
2, 48321, Note_off_c, 0, 71, 0
2, 48384, Note_on_c, 0, 71, 91
2, 48384, Note_off_c, 0, 64, 0
2, 48384, Note_off_c, 0, 54, 0
2, 48384, Note_on_c, 0, 63, 71
2, 48384, Note_on_c, 0, 59, 78
2, 48385, Note_off_c, 0, 69, 0
2, 48627, Note_off_c, 0, 71, 0
2, 48640, Note_on_c, 0, 68, 78
2, 48640, Note_off_c, 0, 63, 0
2, 48640, Note_off_c, 0, 59, 0
2, 48640, Note_on_c, 0, 64, 80
2, 48640, Note_on_c, 0, 61, 82
2, 48896, Note_on_c, 0, 71, 87
2, 48901, Note_off_c, 0, 68, 0
2, 48981, Note_on_c, 0, 68, 71
2, 48982, Note_off_c, 0, 71, 0
2, 49066, Note_on_c, 0, 71, 81
2, 49067, Note_off_c, 0, 68, 0
2, 49152, Note_on_c, 0, 73, 83
2, 49152, Note_off_c, 0, 64, 0
2, 49152, Note_off_c, 0, 61, 0
2, 49152, Note_on_c, 0, 64, 69
2, 49152, Note_on_c, 0, 68, 69
2, 49152, Note_on_c, 0, 61, 64
2, 49153, Note_off_c, 0, 71, 0
2, 49638, Note_off_c, 0, 73, 0
2, 49664, Note_on_c, 0, 76, 70
2, 49664, Note_off_c, 0, 64, 0
2, 49664, Note_off_c, 0, 68, 0
2, 49664, Note_off_c, 0, 61, 0
2, 49664, Note_on_c, 0, 68, 53
2, 49664, Note_on_c, 0, 61, 55
2, 49749, Note_on_c, 0, 75, 70
2, 49750, Note_off_c, 0, 76, 0
2, 49834, Note_on_c, 0, 73, 65
2, 49835, Note_off_c, 0, 75, 0
2, 49920, Note_off_c, 0, 73, 0
2, 49920, Note_on_c, 0, 73, 62
2, 50176, Note_off_c, 0, 68, 0
2, 50176, Note_off_c, 0, 61, 0
2, 50176, Note_on_c, 0, 66, 54
2, 50176, Note_on_c, 0, 57, 57
2, 50304, Note_on_c, 0, 76, 68
2, 50311, Note_off_c, 0, 73, 0
2, 50432, Note_on_c, 0, 75, 67
2, 50434, Note_off_c, 0, 76, 0
2, 50560, Note_on_c, 0, 73, 64
2, 50562, Note_off_c, 0, 75, 0
2, 50681, Note_off_c, 0, 73, 0
2, 50688, Note_on_c, 0, 76, 72
2, 50688, Note_off_c, 0, 66, 0
2, 50688, Note_off_c, 0, 57, 0
2, 50688, Note_on_c, 0, 68, 67
2, 50688, Note_on_c, 0, 61, 74
2, 50773, Note_on_c, 0, 75, 68
2, 50774, Note_off_c, 0, 76, 0
2, 50858, Note_on_c, 0, 73, 64
2, 50859, Note_off_c, 0, 75, 0
2, 50944, Note_off_c, 0, 73, 0
2, 50944, Note_on_c, 0, 73, 69
2, 51200, Note_off_c, 0, 68, 0
2, 51200, Note_off_c, 0, 61, 0
2, 51200, Note_on_c, 0, 69, 65
2, 51200, Note_on_c, 0, 66, 76
2, 51328, Note_on_c, 0, 76, 88
2, 51335, Note_off_c, 0, 73, 0
2, 51456, Note_on_c, 0, 75, 77
2, 51458, Note_off_c, 0, 76, 0
2, 51584, Note_on_c, 0, 73, 72
2, 51586, Note_off_c, 0, 75, 0
2, 51705, Note_off_c, 0, 73, 0
2, 51712, Note_on_c, 0, 73, 72
2, 51712, Note_off_c, 0, 69, 0
2, 51712, Note_off_c, 0, 66, 0
2, 51712, Note_on_c, 0, 61, 55
2, 51712, Note_on_c, 0, 64, 55
2, 51776, Note_on_c, 0, 76, 80
2, 51777, Note_off_c, 0, 73, 0
2, 51836, Note_off_c, 0, 76, 0
2, 51840, Note_on_c, 0, 80, 89
2, 51872, Note_off_c, 0, 80, 0
2, 51904, Note_on_c, 0, 80, 81
2, 51936, Note_off_c, 0, 80, 0
2, 51968, Note_on_c, 0, 80, 86
2, 51968, Note_on_c, 0, 59, 69
2, 52224, Note_off_c, 0, 59, 0
2, 52224, Note_on_c, 0, 57, 69
2, 52352, Note_off_c, 0, 80, 0
2, 52352, Note_on_c, 0, 78, 80
2, 52480, Note_off_c, 0, 78, 0
2, 52480, Note_on_c, 0, 76, 79
2, 52531, Note_on_c, 0, 78, 98
2, 52532, Note_off_c, 0, 76, 0
2, 52582, Note_on_c, 0, 81, 103
2, 52583, Note_off_c, 0, 78, 0
2, 52633, Note_on_c, 0, 80, 90
2, 52634, Note_off_c, 0, 81, 0
2, 52684, Note_on_c, 0, 78, 90
2, 52685, Note_off_c, 0, 80, 0
2, 52736, Note_on_c, 0, 85, 111
2, 52736, Note_off_c, 0, 61, 0
2, 52736, Note_off_c, 0, 64, 0
2, 52736, Note_off_c, 0, 57, 0
2, 52736, Note_on_c, 0, 49, 75
2, 52737, Note_off_c, 0, 78, 0
2, 52821, Note_off_c, 0, 49, 0
2, 52821, Note_on_c, 0, 56, 94
2, 52906, Note_off_c, 0, 56, 0
2, 52906, Note_on_c, 0, 61, 97
2, 52992, Note_off_c, 0, 61, 0
2, 52992, Note_on_c, 0, 64, 85
2, 53077, Note_off_c, 0, 64, 0
2, 53077, Note_on_c, 0, 68, 82
2, 53162, Note_off_c, 0, 68, 0
2, 53162, Note_on_c, 0, 73, 88
2, 53333, Note_off_c, 0, 73, 0
2, 53333, Note_on_c, 0, 68, 62
2, 53418, Note_off_c, 0, 68, 0
2, 53418, Note_on_c, 0, 64, 62
2, 53504, Note_off_c, 0, 64, 0
2, 53504, Note_on_c, 0, 61, 62
2, 53589, Note_off_c, 0, 61, 0
2, 53589, Note_on_c, 0, 56, 58
2, 53674, Note_off_c, 0, 56, 0
2, 53674, Note_on_c, 0, 49, 57
2, 53708, Note_off_c, 0, 85, 0
2, 53760, Note_on_c, 0, 73, 40
2, 53760, Note_off_c, 0, 49, 0
2, 53760, Note_on_c, 0, 37, 51
2, 53824, Note_off_c, 0, 37, 0
2, 53888, Note_on_c, 0, 40, 56
2, 53952, Note_off_c, 0, 40, 0
2, 54016, Note_on_c, 0, 44, 57
2, 54080, Note_off_c, 0, 44, 0
2, 54144, Note_on_c, 0, 37, 51
2, 54208, Note_off_c, 0, 37, 0
2, 54272, Note_on_c, 0, 75, 56
2, 54272, Note_on_c, 0, 42, 60
2, 54336, Note_off_c, 0, 42, 0
2, 54400, Note_on_c, 0, 45, 61
2, 54464, Note_off_c, 0, 45, 0
2, 54528, Note_on_c, 0, 76, 63
2, 54528, Note_on_c, 0, 44, 58
2, 54533, Note_off_c, 0, 75, 0
2, 54592, Note_off_c, 0, 44, 0
2, 54656, Note_on_c, 0, 37, 56
2, 54720, Note_off_c, 0, 37, 0
2, 54732, Note_off_c, 0, 73, 0
2, 54771, Note_off_c, 0, 76, 0
2, 54784, Note_on_c, 0, 80, 69
2, 54784, Note_on_c, 0, 76, 69
2, 54784, Note_on_c, 0, 42, 65
2, 54848, Note_off_c, 0, 42, 0
2, 54912, Note_on_c, 0, 45, 67
2, 54976, Note_off_c, 0, 45, 0
2, 55040, Note_off_c, 0, 80, 0
2, 55040, Note_off_c, 0, 76, 0
2, 55040, Note_on_c, 0, 78, 69
2, 55040, Note_on_c, 0, 74, 57
2, 55040, Note_on_c, 0, 50, 67
2, 55104, Note_off_c, 0, 50, 0
2, 55168, Note_on_c, 0, 52, 74
2, 55232, Note_off_c, 0, 52, 0
2, 55296, Note_on_c, 0, 54, 68
2, 55360, Note_off_c, 0, 54, 0
2, 55424, Note_on_c, 0, 50, 59
2, 55488, Note_off_c, 0, 50, 0
2, 55552, Note_off_c, 0, 78, 0
2, 55552, Note_off_c, 0, 74, 0
2, 55552, Note_on_c, 0, 81, 82
2, 55552, Note_on_c, 0, 78, 71
2, 55552, Note_on_c, 0, 49, 66
2, 55616, Note_off_c, 0, 49, 0
2, 55680, Note_on_c, 0, 48, 62
2, 55744, Note_off_c, 0, 48, 0
2, 55808, Note_on_c, 0, 49, 67
2, 55872, Note_off_c, 0, 49, 0
2, 55936, Note_on_c, 0, 51, 64
2, 56000, Note_off_c, 0, 51, 0
2, 56064, Note_off_c, 0, 81, 0
2, 56064, Note_off_c, 0, 78, 0
2, 56064, Note_on_c, 0, 80, 80
2, 56064, Note_on_c, 0, 76, 61
2, 56064, Note_on_c, 0, 52, 66
2, 56128, Note_off_c, 0, 52, 0
2, 56192, Note_on_c, 0, 46, 64
2, 56256, Note_off_c, 0, 46, 0
2, 56320, Note_on_c, 0, 48, 65
2, 56384, Note_off_c, 0, 48, 0
2, 56448, Note_off_c, 0, 80, 0
2, 56448, Note_off_c, 0, 76, 0
2, 56448, Note_on_c, 0, 78, 76
2, 56448, Note_on_c, 0, 75, 62
2, 56448, Note_on_c, 0, 44, 59
2, 56512, Note_off_c, 0, 44, 0
2, 56576, Note_on_c, 0, 49, 65
2, 56640, Note_off_c, 0, 49, 0
2, 56704, Note_on_c, 0, 76, 74
2, 56704, Note_on_c, 0, 73, 60
2, 56704, Note_on_c, 0, 45, 58
2, 56714, Note_off_c, 0, 78, 0
2, 56714, Note_off_c, 0, 75, 0
2, 56768, Note_off_c, 0, 45, 0
2, 56818, Note_off_c, 0, 76, 0
2, 56818, Note_off_c, 0, 73, 0
2, 56832, Note_on_c, 0, 76, 75
2, 56832, Note_on_c, 0, 73, 64
2, 56832, Note_on_c, 0, 42, 58
2, 56896, Note_off_c, 0, 42, 0
2, 56960, Note_on_c, 0, 44, 59
2, 57024, Note_off_c, 0, 44, 0
2, 57088, Note_off_c, 0, 76, 0
2, 57088, Note_on_c, 0, 75, 71
2, 57088, Note_on_c, 0, 45, 61
2, 57152, Note_off_c, 0, 45, 0
2, 57216, Note_on_c, 0, 42, 55
2, 57280, Note_off_c, 0, 42, 0
2, 57344, Note_off_c, 0, 75, 0
2, 57344, Note_on_c, 0, 78, 81
2, 57344, Note_on_c, 0, 39, 55
2, 57408, Note_off_c, 0, 39, 0
2, 57472, Note_on_c, 0, 42, 60
2, 57536, Note_off_c, 0, 42, 0
2, 57564, Note_off_c, 0, 78, 0
2, 57564, Note_on_c, 0, 76, 58
2, 57577, Note_on_c, 0, 78, 58
2, 57600, Note_off_c, 0, 73, 0
2, 57600, Note_on_c, 0, 76, 58
2, 57600, Note_off_c, 0, 76, 0
2, 57600, Note_off_c, 0, 78, 0
2, 57600, Note_on_c, 0, 72, 65
2, 57600, Note_on_c, 0, 44, 52
2, 57664, Note_off_c, 0, 44, 0
2, 57728, Note_off_c, 0, 76, 0
2, 57728, Note_on_c, 0, 75, 71
2, 57728, Note_on_c, 0, 32, 48
2, 57792, Note_off_c, 0, 32, 0
2, 57856, Note_off_c, 0, 72, 0
2, 57856, Note_off_c, 0, 75, 0
2, 57856, Note_on_c, 0, 76, 73
2, 57856, Note_on_c, 0, 73, 67
2, 57856, Note_on_c, 0, 37, 58
2, 57920, Note_off_c, 0, 76, 0
2, 57920, Note_off_c, 0, 73, 0
2, 57920, Note_on_c, 0, 73, 60
2, 57920, Note_on_c, 0, 64, 50
2, 57920, Note_off_c, 0, 37, 0
2, 57984, Note_on_c, 0, 40, 53
2, 58048, Note_off_c, 0, 40, 0
2, 58112, Note_on_c, 0, 44, 60
2, 58176, Note_off_c, 0, 44, 0
2, 58240, Note_on_c, 0, 49, 56
2, 58304, Note_off_c, 0, 49, 0
2, 58368, Note_on_c, 0, 47, 57
2, 58432, Note_off_c, 0, 47, 0
2, 58496, Note_on_c, 0, 45, 50
2, 58560, Note_off_c, 0, 45, 0
2, 58624, Note_on_c, 0, 44, 53
2, 58688, Note_off_c, 0, 44, 0
2, 58752, Note_on_c, 0, 40, 50
2, 58816, Note_off_c, 0, 40, 0
2, 58880, Note_off_c, 0, 73, 0
2, 58880, Note_off_c, 0, 64, 0
2, 58880, Note_on_c, 0, 76, 73
2, 58880, Note_on_c, 0, 73, 76
2, 58880, Note_on_c, 0, 37, 59
2, 58944, Note_off_c, 0, 37, 0
2, 59008, Note_on_c, 0, 44, 72
2, 59072, Note_off_c, 0, 44, 0
2, 59136, Note_on_c, 0, 40, 66
2, 59200, Note_off_c, 0, 40, 0
2, 59264, Note_on_c, 0, 49, 78
2, 59328, Note_off_c, 0, 49, 0
2, 59392, Note_on_c, 0, 78, 79
2, 59392, Note_on_c, 0, 75, 75
2, 59392, Note_on_c, 0, 45, 68
2, 59402, Note_off_c, 0, 76, 0
2, 59402, Note_off_c, 0, 73, 0
2, 59456, Note_off_c, 0, 45, 0
2, 59520, Note_on_c, 0, 49, 78
2, 59584, Note_off_c, 0, 49, 0
2, 59648, Note_on_c, 0, 80, 76
2, 59648, Note_on_c, 0, 76, 83
2, 59648, Note_on_c, 0, 52, 79
2, 59653, Note_off_c, 0, 78, 0
2, 59653, Note_off_c, 0, 75, 0
2, 59712, Note_off_c, 0, 52, 0
2, 59776, Note_on_c, 0, 49, 74
2, 59840, Note_off_c, 0, 49, 0
2, 59904, Note_on_c, 0, 83, 81
2, 59904, Note_on_c, 0, 75, 89
2, 59904, Note_on_c, 0, 78, 89
2, 59904, Note_on_c, 0, 47, 73
2, 59909, Note_off_c, 0, 80, 0
2, 59909, Note_off_c, 0, 76, 0
2, 59968, Note_off_c, 0, 47, 0
2, 60032, Note_on_c, 0, 54, 83
2, 60096, Note_off_c, 0, 54, 0
2, 60160, Note_on_c, 0, 51, 78
2, 60224, Note_off_c, 0, 51, 0
2, 60288, Note_on_c, 0, 85, 93
2, 60288, Note_on_c, 0, 47, 81
2, 60295, Note_off_c, 0, 83, 0
2, 60352, Note_on_c, 0, 83, 86
2, 60352, Note_off_c, 0, 47, 0
2, 60353, Note_off_c, 0, 85, 0
2, 60416, Note_off_c, 0, 83, 0
2, 60416, Note_on_c, 0, 83, 86
2, 60416, Note_on_c, 0, 76, 86
2, 60416, Note_on_c, 0, 52, 93
2, 60426, Note_off_c, 0, 75, 0
2, 60426, Note_off_c, 0, 78, 0
2, 60480, Note_on_c, 0, 80, 76
2, 60480, Note_off_c, 0, 52, 0
2, 60481, Note_off_c, 0, 83, 0
2, 60544, Note_on_c, 0, 47, 81
2, 60608, Note_off_c, 0, 47, 0
2, 60672, Note_on_c, 0, 44, 73
2, 60736, Note_off_c, 0, 44, 0
2, 60800, Note_on_c, 0, 40, 75
2, 60864, Note_off_c, 0, 40, 0
2, 60902, Note_off_c, 0, 76, 0
2, 60905, Note_off_c, 0, 80, 0
2, 60928, Note_on_c, 0, 78, 83
2, 60928, Note_on_c, 0, 69, 82
2, 60928, Note_on_c, 0, 74, 82
2, 60928, Note_on_c, 0, 50, 83
2, 60992, Note_off_c, 0, 50, 0
2, 61056, Note_on_c, 0, 45, 70
2, 61120, Note_off_c, 0, 45, 0
2, 61184, Note_on_c, 0, 42, 59
2, 61248, Note_off_c, 0, 42, 0
2, 61312, Note_off_c, 0, 74, 0
2, 61312, Note_on_c, 0, 80, 76
2, 61312, Note_on_c, 0, 71, 80
2, 61312, Note_on_c, 0, 74, 80
2, 61312, Note_on_c, 0, 38, 64
2, 61326, Note_off_c, 0, 78, 0
2, 61326, Note_off_c, 0, 69, 0
2, 61376, Note_off_c, 0, 38, 0
2, 61440, Note_on_c, 0, 81, 72
2, 61440, Note_on_c, 0, 73, 78
2, 61440, Note_on_c, 0, 76, 78
2, 61440, Note_on_c, 0, 33, 58
2, 61444, Note_off_c, 0, 80, 0
2, 61444, Note_off_c, 0, 71, 0
2, 61444, Note_off_c, 0, 74, 0
2, 61504, Note_off_c, 0, 33, 0
2, 61568, Note_on_c, 0, 35, 67
2, 61632, Note_off_c, 0, 35, 0
2, 61683, Note_off_c, 0, 73, 0
2, 61687, Note_off_c, 0, 81, 0
2, 61687, Note_off_c, 0, 76, 0
2, 61696, Note_on_c, 0, 76, 57
2, 61696, Note_on_c, 0, 68, 63
2, 61696, Note_on_c, 0, 73, 63
2, 61696, Note_on_c, 0, 37, 64
2, 61760, Note_off_c, 0, 37, 0
2, 61824, Note_on_c, 0, 40, 63
2, 61888, Note_off_c, 0, 40, 0
2, 61939, Note_off_c, 0, 76, 0
2, 61939, Note_off_c, 0, 68, 0
2, 61939, Note_off_c, 0, 73, 0
2, 61952, Note_on_c, 0, 76, 61
2, 61952, Note_on_c, 0, 69, 67
2, 61952, Note_on_c, 0, 73, 67
2, 61952, Note_on_c, 0, 42, 58
2, 62016, Note_off_c, 0, 42, 0
2, 62080, Note_on_c, 0, 44, 57
2, 62144, Note_off_c, 0, 44, 0
2, 62208, Note_on_c, 0, 45, 57
2, 62272, Note_off_c, 0, 45, 0
2, 62336, Note_on_c, 0, 42, 50
2, 62400, Note_off_c, 0, 42, 0
2, 62464, Note_on_c, 0, 78, 65
2, 62464, Note_on_c, 0, 39, 55
2, 62474, Note_off_c, 0, 76, 0
2, 62528, Note_off_c, 0, 39, 0
2, 62592, Note_on_c, 0, 42, 58
2, 62656, Note_off_c, 0, 42, 0
2, 62685, Note_off_c, 0, 78, 0
2, 62685, Note_on_c, 0, 76, 64
2, 62698, Note_on_c, 0, 78, 64
2, 62720, Note_on_c, 0, 76, 64
2, 62720, Note_off_c, 0, 76, 0
2, 62720, Note_off_c, 0, 78, 0
2, 62720, Note_on_c, 0, 68, 62
2, 62720, Note_on_c, 0, 72, 62
2, 62720, Note_on_c, 0, 44, 57
2, 62735, Note_off_c, 0, 69, 0
2, 62735, Note_off_c, 0, 73, 0
2, 62784, Note_off_c, 0, 44, 0
2, 62848, Note_off_c, 0, 68, 0
2, 62848, Note_on_c, 0, 66, 57
2, 62848, Note_on_c, 0, 68, 57
2, 62848, Note_on_c, 0, 32, 50
2, 62850, Note_off_c, 0, 72, 0
2, 62902, Note_off_c, 0, 76, 0
2, 62912, Note_on_c, 0, 75, 63
2, 62912, Note_off_c, 0, 32, 0
2, 62969, Note_off_c, 0, 66, 0
2, 62969, Note_off_c, 0, 68, 0
2, 62976, Note_off_c, 0, 75, 0
2, 62976, Note_on_c, 0, 73, 62
2, 62976, Note_on_c, 0, 64, 61
2, 62976, Note_on_c, 0, 68, 61
2, 62976, Note_on_c, 0, 37, 55
2, 63040, Note_off_c, 0, 37, 0
2, 63104, Note_on_c, 0, 49, 56
2, 63168, Note_off_c, 0, 49, 0
2, 63232, Note_on_c, 0, 47, 57
2, 63296, Note_off_c, 0, 47, 0
2, 63360, Note_on_c, 0, 45, 50
2, 63424, Note_off_c, 0, 45, 0
2, 63488, Note_on_c, 0, 44, 52
2, 63552, Note_off_c, 0, 44, 0
2, 63616, Note_on_c, 0, 40, 51
2, 63680, Note_off_c, 0, 40, 0
2, 63744, Note_on_c, 0, 37, 55
2, 63808, Note_off_c, 0, 37, 0
2, 63872, Note_on_c, 0, 44, 56
2, 63936, Note_off_c, 0, 44, 0
2, 64000, Note_off_c, 0, 73, 0
2, 64000, Note_off_c, 0, 64, 0
2, 64000, Note_off_c, 0, 68, 0
2, 64000, Note_on_c, 0, 73, 67
2, 64000, Note_on_c, 0, 76, 74
2, 64000, Note_on_c, 0, 49, 61
2, 64000, Note_on_c, 0, 56, 61
2, 64085, Note_on_c, 0, 75, 63
2, 64086, Note_off_c, 0, 76, 0
2, 64128, Note_off_c, 0, 73, 0
2, 64170, Note_on_c, 0, 73, 64
2, 64171, Note_off_c, 0, 75, 0
2, 64256, Note_off_c, 0, 73, 0
2, 64256, Note_on_c, 0, 73, 60
2, 64341, Note_on_c, 0, 75, 70
2, 64426, Note_on_c, 0, 76, 74
2, 64427, Note_off_c, 0, 75, 0
2, 64512, Note_on_c, 0, 78, 76
2, 64512, Note_off_c, 0, 49, 0
2, 64512, Note_off_c, 0, 56, 0
2, 64512, Note_on_c, 0, 45, 58
2, 64512, Note_on_c, 0, 54, 58
2, 64513, Note_off_c, 0, 76, 0
2, 64601, Note_off_c, 0, 73, 0
2, 64640, Note_on_c, 0, 76, 85
2, 64768, Note_on_c, 0, 75, 81
2, 64770, Note_off_c, 0, 76, 0
2, 64896, Note_on_c, 0, 73, 63
2, 64898, Note_off_c, 0, 75, 0
2, 64998, Note_off_c, 0, 78, 0
2, 65024, Note_on_c, 0, 80, 93
2, 65024, Note_on_c, 0, 76, 80
2, 65024, Note_off_c, 0, 45, 0
2, 65024, Note_off_c, 0, 54, 0
2, 65024, Note_on_c, 0, 49, 68
2, 65024, Note_on_c, 0, 56, 68
2, 65026, Note_off_c, 0, 73, 0
2, 65109, Note_on_c, 0, 75, 76
2, 65110, Note_off_c, 0, 76, 0
2, 65154, Note_off_c, 0, 80, 0
2, 65194, Note_on_c, 0, 73, 72
2, 65195, Note_off_c, 0, 75, 0
2, 65280, Note_off_c, 0, 73, 0
2, 65280, Note_on_c, 0, 73, 70
2, 65365, Note_on_c, 0, 75, 90
2, 65450, Note_on_c, 0, 76, 98
2, 65451, Note_off_c, 0, 75, 0
2, 65536, Note_on_c, 0, 78, 91
2, 65536, Note_off_c, 0, 49, 0
2, 65536, Note_off_c, 0, 56, 0
2, 65536, Note_on_c, 0, 45, 61
2, 65536, Note_on_c, 0, 54, 61
2, 65537, Note_off_c, 0, 76, 0
2, 65625, Note_off_c, 0, 73, 0
2, 65664, Note_on_c, 0, 76, 88
2, 65792, Note_on_c, 0, 75, 81
2, 65794, Note_off_c, 0, 76, 0
2, 65920, Note_on_c, 0, 73, 79
2, 65922, Note_off_c, 0, 75, 0
2, 66022, Note_off_c, 0, 78, 0
2, 66048, Note_on_c, 0, 80, 87
2, 66048, Note_on_c, 0, 71, 76
2, 66048, Note_off_c, 0, 45, 0
2, 66048, Note_off_c, 0, 54, 0
2, 66048, Note_on_c, 0, 51, 78
2, 66048, Note_on_c, 0, 44, 60
2, 66050, Note_off_c, 0, 73, 0
2, 66133, Note_on_c, 0, 68, 78
2, 66134, Note_off_c, 0, 71, 0
2, 66218, Note_on_c, 0, 71, 82
2, 66219, Note_off_c, 0, 68, 0
2, 66304, Note_on_c, 0, 73, 90
2, 66304, Note_off_c, 0, 51, 0
2, 66304, Note_on_c, 0, 52, 78
2, 66305, Note_off_c, 0, 71, 0
2, 66534, Note_off_c, 0, 80, 0
2, 66547, Note_off_c, 0, 73, 0
2, 66560, Note_on_c, 0, 81, 102
2, 66560, Note_on_c, 0, 69, 79
2, 66560, Note_off_c, 0, 44, 0
2, 66560, Note_on_c, 0, 42, 74
2, 66624, Note_on_c, 0, 73, 83
2, 66625, Note_off_c, 0, 69, 0
2, 66688, Note_on_c, 0, 71, 80
2, 66689, Note_off_c, 0, 73, 0
2, 66752, Note_on_c, 0, 69, 76
2, 66753, Note_off_c, 0, 71, 0
2, 66816, Note_on_c, 0, 80, 95
2, 66816, Note_on_c, 0, 71, 89
2, 66816, Note_off_c, 0, 52, 0
2, 66816, Note_off_c, 0, 42, 0
2, 66816, Note_on_c, 0, 51, 83
2, 66816, Note_on_c, 0, 47, 74
2, 66817, Note_off_c, 0, 69, 0
2, 66821, Note_off_c, 0, 81, 0
2, 67059, Note_off_c, 0, 71, 0
2, 67072, Note_on_c, 0, 68, 73
2, 67072, Note_off_c, 0, 51, 0
2, 67072, Note_off_c, 0, 47, 0
2, 67072, Note_on_c, 0, 52, 87
2, 67180, Note_off_c, 0, 80, 0
2, 67200, Note_on_c, 0, 78, 84
2, 67328, Note_off_c, 0, 68, 0
2, 67328, Note_on_c, 0, 75, 78
2, 67328, Note_on_c, 0, 71, 90
2, 67328, Note_on_c, 0, 56, 77
2, 67330, Note_off_c, 0, 78, 0
2, 67413, Note_on_c, 0, 68, 86
2, 67415, Note_off_c, 0, 71, 0
2, 67456, Note_on_c, 0, 76, 81
2, 67460, Note_off_c, 0, 75, 0
2, 67494, Note_off_c, 0, 68, 0
2, 67498, Note_on_c, 0, 71, 92
2, 67584, Note_on_c, 0, 73, 70
2, 67584, Note_off_c, 0, 52, 0
2, 67584, Note_on_c, 0, 49, 75
2, 67584, Note_on_c, 0, 52, 75
2, 67585, Note_off_c, 0, 71, 0
2, 67686, Note_off_c, 0, 76, 0
2, 67712, Note_on_c, 0, 78, 90
2, 67840, Note_on_c, 0, 76, 85
2, 67842, Note_off_c, 0, 78, 0
2, 67968, Note_on_c, 0, 75, 85
2, 67970, Note_off_c, 0, 76, 0
2, 68070, Note_off_c, 0, 73, 0
2, 68096, Note_on_c, 0, 73, 81
2, 68096, Note_on_c, 0, 76, 78
2, 68096, Note_off_c, 0, 56, 0
2, 68096, Note_off_c, 0, 49, 0
2, 68096, Note_off_c, 0, 52, 0
2, 68096, Note_on_c, 0, 49, 65
2, 68096, Note_on_c, 0, 52, 65
2, 68096, Note_on_c, 0, 56, 65
2, 68098, Note_off_c, 0, 75, 0
2, 68177, Note_off_c, 0, 76, 0
2, 68181, Note_on_c, 0, 75, 70
2, 68210, Note_off_c, 0, 73, 0
2, 68266, Note_on_c, 0, 73, 72
2, 68267, Note_off_c, 0, 75, 0
2, 68347, Note_off_c, 0, 73, 0
2, 68352, Note_on_c, 0, 76, 81
2, 68352, Note_on_c, 0, 73, 79
2, 68437, Note_on_c, 0, 78, 94
2, 68438, Note_off_c, 0, 76, 0
2, 68522, Note_on_c, 0, 80, 95
2, 68523, Note_off_c, 0, 78, 0
2, 68608, Note_on_c, 0, 81, 96
2, 68608, Note_off_c, 0, 49, 0
2, 68608, Note_off_c, 0, 52, 0
2, 68608, Note_off_c, 0, 56, 0
2, 68608, Note_on_c, 0, 52, 81
2, 68608, Note_on_c, 0, 55, 81
2, 68608, Note_on_c, 0, 57, 81
2, 68609, Note_off_c, 0, 80, 0
2, 68716, Note_off_c, 0, 73, 0
2, 68736, Note_on_c, 0, 76, 89
2, 68864, Note_on_c, 0, 75, 87
2, 68866, Note_off_c, 0, 76, 0
2, 68992, Note_on_c, 0, 73, 75
2, 68994, Note_off_c, 0, 75, 0
2, 69094, Note_off_c, 0, 81, 0
2, 69113, Note_off_c, 0, 73, 0
2, 69120, Note_on_c, 0, 80, 96
2, 69120, Note_on_c, 0, 76, 95
2, 69120, Note_off_c, 0, 52, 0
2, 69120, Note_off_c, 0, 55, 0
2, 69120, Note_off_c, 0, 57, 0
2, 69120, Note_on_c, 0, 49, 76
2, 69120, Note_on_c, 0, 52, 76
2, 69120, Note_on_c, 0, 56, 76
2, 69205, Note_on_c, 0, 75, 88
2, 69206, Note_off_c, 0, 76, 0
2, 69241, Note_off_c, 0, 80, 0
2, 69290, Note_on_c, 0, 73, 79
2, 69291, Note_off_c, 0, 75, 0
2, 69371, Note_off_c, 0, 73, 0
2, 69376, Note_on_c, 0, 76, 89
2, 69376, Note_on_c, 0, 73, 87
2, 69461, Note_on_c, 0, 78, 94
2, 69462, Note_off_c, 0, 76, 0
2, 69546, Note_on_c, 0, 80, 105
2, 69547, Note_off_c, 0, 78, 0
2, 69613, Note_off_c, 0, 80, 0
2, 69613, Note_on_c, 0, 83, 87
2, 69632, Note_on_c, 0, 81, 95
2, 69632, Note_off_c, 0, 83, 0
2, 69632, Note_off_c, 0, 49, 0
2, 69632, Note_off_c, 0, 52, 0
2, 69632, Note_off_c, 0, 56, 0
2, 69632, Note_on_c, 0, 52, 86
2, 69632, Note_on_c, 0, 55, 86
2, 69632, Note_on_c, 0, 57, 86
2, 69740, Note_off_c, 0, 73, 0
2, 69760, Note_on_c, 0, 76, 101
2, 69888, Note_on_c, 0, 74, 86
2, 69890, Note_off_c, 0, 76, 0
2, 70016, Note_on_c, 0, 73, 87
2, 70018, Note_off_c, 0, 74, 0
2, 70118, Note_off_c, 0, 81, 0
2, 70125, Note_on_c, 0, 83, 96
2, 70137, Note_off_c, 0, 73, 0
2, 70144, Note_on_c, 0, 81, 96
2, 70144, Note_off_c, 0, 83, 0
2, 70144, Note_on_c, 0, 78, 110
2, 70144, Note_off_c, 0, 52, 0
2, 70144, Note_off_c, 0, 55, 0
2, 70144, Note_off_c, 0, 57, 0
2, 70144, Note_on_c, 0, 50, 87
2, 70144, Note_on_c, 0, 54, 87
2, 70144, Note_on_c, 0, 57, 87
2, 70225, Note_off_c, 0, 78, 0
2, 70229, Note_on_c, 0, 76, 93
2, 70314, Note_on_c, 0, 74, 102
2, 70315, Note_off_c, 0, 76, 0
2, 70395, Note_off_c, 0, 74, 0
2, 70400, Note_on_c, 0, 74, 99
2, 70605, Note_off_c, 0, 81, 0
2, 70630, Note_on_c, 0, 88, 96
2, 70656, Note_off_c, 0, 74, 0
2, 70656, Note_on_c, 0, 86, 96
2, 70656, Note_off_c, 0, 88, 0
2, 70656, Note_on_c, 0, 81, 127
2, 70656, Note_off_c, 0, 50, 0
2, 70656, Note_off_c, 0, 54, 0
2, 70656, Note_off_c, 0, 57, 0
2, 70656, Note_on_c, 0, 54, 97
2, 70656, Note_on_c, 0, 57, 97
2, 70779, Note_off_c, 0, 81, 0
2, 70784, Note_on_c, 0, 78, 98
2, 70912, Note_on_c, 0, 76, 93
2, 70914, Note_off_c, 0, 78, 0
2, 71040, Note_on_c, 0, 74, 98
2, 71042, Note_off_c, 0, 76, 0
2, 71117, Note_off_c, 0, 86, 0
2, 71142, Note_on_c, 0, 93, 102
2, 71161, Note_off_c, 0, 74, 0
2, 71168, Note_on_c, 0, 92, 102
2, 71168, Note_off_c, 0, 93, 0
2, 71168, Note_on_c, 0, 86, 127
2, 71168, Note_off_c, 0, 54, 0
2, 71168, Note_off_c, 0, 57, 0
2, 71168, Note_on_c, 0, 64, 124
2, 71168, Note_on_c, 0, 56, 110
2, 71291, Note_off_c, 0, 86, 0
2, 71296, Note_on_c, 0, 85, 103
2, 71424, Note_on_c, 0, 84, 96
2, 71426, Note_off_c, 0, 85, 0
2, 71552, Note_on_c, 0, 83, 94
2, 71554, Note_off_c, 0, 84, 0
2, 71680, Note_on_c, 0, 82, 93
2, 71680, Note_off_c, 0, 64, 0
2, 71680, Note_off_c, 0, 56, 0
2, 71680, Note_on_c, 0, 61, 78
2, 71680, Note_on_c, 0, 56, 85
2, 71682, Note_off_c, 0, 83, 0
2, 71808, Note_on_c, 0, 81, 87
2, 71810, Note_off_c, 0, 82, 0
2, 71911, Note_off_c, 0, 92, 0
2, 71936, Note_on_c, 0, 88, 82
2, 71936, Note_on_c, 0, 80, 86
2, 71938, Note_off_c, 0, 81, 0
2, 72064, Note_on_c, 0, 85, 89
2, 72064, Note_on_c, 0, 79, 81
2, 72064, Note_off_c, 0, 61, 0
2, 72064, Note_on_c, 0, 64, 84
2, 72066, Note_off_c, 0, 88, 0
2, 72066, Note_off_c, 0, 80, 0
2, 72185, Note_off_c, 0, 85, 0
2, 72185, Note_off_c, 0, 79, 0
2, 72192, Note_on_c, 0, 84, 86
2, 72192, Note_on_c, 0, 81, 90
2, 72192, Note_off_c, 0, 56, 0
2, 72192, Note_off_c, 0, 64, 0
2, 72192, Note_on_c, 0, 60, 84
2, 72192, Note_on_c, 0, 66, 84
2, 72192, Note_on_c, 0, 56, 76
2, 72313, Note_off_c, 0, 84, 0
2, 72320, Note_on_c, 0, 80, 82
2, 72320, Note_off_c, 0, 60, 0
2, 72320, Note_off_c, 0, 66, 0
2, 72320, Note_off_c, 0, 56, 0
2, 72322, Note_off_c, 0, 81, 0
2, 72448, Note_on_c, 0, 78, 77
2, 72450, Note_off_c, 0, 80, 0
2, 72576, Note_on_c, 0, 76, 76
2, 72578, Note_off_c, 0, 78, 0
2, 72704, Note_on_c, 0, 75, 67
2, 72706, Note_off_c, 0, 76, 0
2, 72832, Note_on_c, 0, 73, 74
2, 72834, Note_off_c, 0, 75, 0
2, 72960, Note_on_c, 0, 72, 74
2, 72962, Note_off_c, 0, 73, 0
2, 73088, Note_on_c, 0, 78, 83
2, 73090, Note_off_c, 0, 72, 0
2, 73209, Note_off_c, 0, 78, 0
2, 73216, Note_on_c, 0, 76, 65
2, 73216, Note_on_c, 0, 72, 67
2, 73216, Note_on_c, 0, 69, 73
2, 73472, Note_on_c, 0, 75, 60
2, 73482, Note_off_c, 0, 76, 0
2, 73696, Note_off_c, 0, 69, 0
2, 73711, Note_off_c, 0, 72, 0
2, 73728, Note_on_c, 0, 69, 67
2, 73728, Note_on_c, 0, 66, 68
2, 73933, Note_off_c, 0, 75, 0
2, 73984, Note_on_c, 0, 74, 67
2, 74214, Note_off_c, 0, 69, 0
2, 74214, Note_off_c, 0, 66, 0
2, 74240, Note_on_c, 0, 71, 79
2, 74240, Note_on_c, 0, 67, 74
2, 74496, Note_on_c, 0, 66, 70
2, 74501, Note_off_c, 0, 67, 0
2, 74752, Note_off_c, 0, 71, 0
2, 74752, Note_on_c, 0, 67, 67
2, 74752, Note_on_c, 0, 70, 67
2, 74752, Note_on_c, 0, 64, 59
2, 74757, Note_off_c, 0, 66, 0
2, 75008, Note_off_c, 0, 74, 0
2, 75008, Note_on_c, 0, 73, 68
2, 75238, Note_off_c, 0, 64, 0
2, 75264, Note_off_c, 0, 67, 0
2, 75264, Note_off_c, 0, 70, 0
2, 75264, Note_on_c, 0, 66, 61
2, 75264, Note_on_c, 0, 69, 61
2, 75264, Note_on_c, 0, 63, 59
2, 75520, Note_off_c, 0, 73, 0
2, 75520, Note_on_c, 0, 72, 59
2, 75776, Note_on_c, 0, 69, 55
2, 75781, Note_off_c, 0, 72, 0
2, 76032, Note_on_c, 0, 64, 51
2, 76032, Note_off_c, 0, 63, 0
2, 76032, Note_on_c, 0, 61, 61
2, 76047, Note_off_c, 0, 66, 0
2, 76047, Note_off_c, 0, 69, 0
2, 76275, Note_off_c, 0, 64, 0
2, 76288, Note_on_c, 0, 63, 62
2, 76288, Note_off_c, 0, 61, 0
2, 76288, Note_on_c, 0, 60, 61
2, 76505, Note_off_c, 0, 69, 0
2, 76544, Note_on_c, 0, 68, 58
2, 76800, Note_off_c, 0, 68, 0
2, 76800, Note_on_c, 0, 67, 61
2, 77312, Note_off_c, 0, 60, 0
2, 77312, Note_on_c, 0, 44, 49
2, 77312, Note_on_c, 0, 48, 49
2, 77440, Note_off_c, 0, 63, 0
2, 77568, Note_off_c, 0, 67, 0
2, 77568, Note_on_c, 0, 68, 74
2, 77824, Note_off_c, 0, 68, 0
2, 77824, Note_on_c, 0, 69, 66
2, 77952, Note_off_c, 0, 69, 0
2, 77952, Note_on_c, 0, 68, 63
2, 78080, Note_off_c, 0, 68, 0
2, 78080, Note_on_c, 0, 63, 56
2, 78208, Note_off_c, 0, 63, 0
2, 78208, Note_on_c, 0, 64, 62
2, 78336, Note_off_c, 0, 64, 0
2, 78336, Note_on_c, 0, 56, 58
2, 78336, Note_on_c, 0, 61, 58
2, 78336, Note_on_c, 0, 52, 45
2, 78336, Note_off_c, 0, 44, 0
2, 78336, Note_off_c, 0, 48, 0
2, 78336, Note_on_c, 0, 49, 65
2, 78400, Note_off_c, 0, 49, 0
2, 78464, Note_on_c, 0, 44, 63
2, 78528, Note_off_c, 0, 44, 0
2, 78592, Note_on_c, 0, 40, 62
2, 78656, Note_off_c, 0, 40, 0
2, 78720, Note_on_c, 0, 37, 60
2, 78784, Note_off_c, 0, 37, 0
2, 78848, Note_on_c, 0, 63, 66
2, 78848, Note_on_c, 0, 57, 50
2, 78848, Note_on_c, 0, 61, 50
2, 78848, Note_on_c, 0, 42, 70
2, 78868, Note_off_c, 0, 56, 0
2, 78868, Note_off_c, 0, 61, 0
2, 78868, Note_off_c, 0, 52, 0
2, 78912, Note_off_c, 0, 42, 0
2, 78976, Note_on_c, 0, 45, 67
2, 79040, Note_off_c, 0, 45, 0
2, 79095, Note_off_c, 0, 63, 0
2, 79095, Note_off_c, 0, 57, 0
2, 79095, Note_off_c, 0, 61, 0
2, 79104, Note_on_c, 0, 64, 70
2, 79104, Note_on_c, 0, 56, 56
2, 79104, Note_on_c, 0, 44, 62
2, 79168, Note_off_c, 0, 44, 0
2, 79232, Note_on_c, 0, 37, 60
2, 79296, Note_off_c, 0, 37, 0
2, 79347, Note_off_c, 0, 64, 0
2, 79347, Note_off_c, 0, 56, 0
2, 79360, Note_on_c, 0, 64, 72
2, 79360, Note_on_c, 0, 68, 72
2, 79360, Note_on_c, 0, 57, 58
2, 79360, Note_on_c, 0, 42, 69
2, 79424, Note_off_c, 0, 42, 0
2, 79488, Note_on_c, 0, 45, 74
2, 79552, Note_off_c, 0, 45, 0
2, 79616, Note_off_c, 0, 64, 0
2, 79616, Note_off_c, 0, 68, 0
2, 79616, Note_on_c, 0, 62, 68
2, 79616, Note_on_c, 0, 66, 68
2, 79616, Note_on_c, 0, 50, 73
2, 79680, Note_off_c, 0, 50, 0
2, 79744, Note_on_c, 0, 54, 74
2, 79808, Note_off_c, 0, 54, 0
2, 79872, Note_on_c, 0, 54, 68
2, 79936, Note_off_c, 0, 54, 0
2, 80000, Note_on_c, 0, 50, 64
2, 80064, Note_off_c, 0, 50, 0
2, 80128, Note_off_c, 0, 62, 0
2, 80128, Note_off_c, 0, 66, 0
2, 80128, Note_on_c, 0, 66, 77
2, 80128, Note_on_c, 0, 69, 77
2, 80128, Note_on_c, 0, 49, 67
2, 80192, Note_off_c, 0, 49, 0
2, 80256, Note_on_c, 0, 48, 67
2, 80320, Note_off_c, 0, 48, 0
2, 80384, Note_off_c, 0, 57, 0
2, 80384, Note_on_c, 0, 57, 69
2, 80384, Note_on_c, 0, 49, 73
2, 80448, Note_off_c, 0, 49, 0
2, 80512, Note_on_c, 0, 51, 75
2, 80576, Note_off_c, 0, 51, 0
2, 80640, Note_off_c, 0, 66, 0
2, 80640, Note_off_c, 0, 69, 0
2, 80640, Note_off_c, 0, 57, 0
2, 80640, Note_on_c, 0, 64, 67
2, 80640, Note_on_c, 0, 68, 67
2, 80640, Note_on_c, 0, 56, 67
2, 80640, Note_on_c, 0, 52, 71
2, 80704, Note_off_c, 0, 52, 0
2, 80768, Note_on_c, 0, 46, 65
2, 80832, Note_off_c, 0, 46, 0
2, 80896, Note_on_c, 0, 48, 74
2, 80960, Note_off_c, 0, 48, 0
2, 81024, Note_on_c, 0, 63, 63
2, 81024, Note_on_c, 0, 66, 63
2, 81024, Note_on_c, 0, 44, 69
2, 81031, Note_off_c, 0, 64, 0
2, 81031, Note_off_c, 0, 68, 0
2, 81088, Note_off_c, 0, 44, 0
2, 81152, Note_off_c, 0, 56, 0
2, 81152, Note_on_c, 0, 56, 64
2, 81152, Note_on_c, 0, 49, 78
2, 81216, Note_off_c, 0, 49, 0
2, 81280, Note_on_c, 0, 61, 63
2, 81280, Note_on_c, 0, 64, 63
2, 81280, Note_on_c, 0, 57, 64
2, 81280, Note_on_c, 0, 45, 66
2, 81284, Note_off_c, 0, 56, 0
2, 81285, Note_off_c, 0, 63, 0
2, 81285, Note_off_c, 0, 66, 0
2, 81344, Note_off_c, 0, 45, 0
2, 81394, Note_off_c, 0, 61, 0
2, 81394, Note_off_c, 0, 64, 0
2, 81394, Note_off_c, 0, 57, 0
2, 81408, Note_on_c, 0, 64, 73
2, 81408, Note_on_c, 0, 57, 75
2, 81408, Note_on_c, 0, 61, 71
2, 81408, Note_on_c, 0, 42, 69
2, 81472, Note_off_c, 0, 42, 0
2, 81536, Note_on_c, 0, 44, 78
2, 81600, Note_off_c, 0, 44, 0
2, 81664, Note_on_c, 0, 63, 68
2, 81664, Note_on_c, 0, 54, 75
2, 81664, Note_on_c, 0, 45, 72
2, 81669, Note_off_c, 0, 64, 0
2, 81669, Note_off_c, 0, 57, 0
2, 81728, Note_off_c, 0, 45, 0
2, 81792, Note_on_c, 0, 42, 70
2, 81856, Note_off_c, 0, 42, 0
2, 81920, Note_on_c, 0, 66, 80
2, 81920, Note_on_c, 0, 57, 82
2, 81920, Note_on_c, 0, 37, 66
2, 81925, Note_off_c, 0, 63, 0
2, 81925, Note_off_c, 0, 54, 0
2, 81984, Note_off_c, 0, 37, 0
2, 82048, Note_on_c, 0, 42, 77
2, 82112, Note_off_c, 0, 42, 0
2, 82151, Note_off_c, 0, 66, 0
2, 82151, Note_on_c, 0, 64, 68
2, 82163, Note_on_c, 0, 66, 68
2, 82176, Note_on_c, 0, 64, 75
2, 82176, Note_off_c, 0, 64, 0
2, 82176, Note_off_c, 0, 66, 0
2, 82176, Note_on_c, 0, 56, 83
2, 82176, Note_on_c, 0, 44, 80
2, 82181, Note_off_c, 0, 57, 0
2, 82191, Note_off_c, 0, 61, 0
2, 82240, Note_off_c, 0, 44, 0
2, 82304, Note_on_c, 0, 44, 81
2, 82358, Note_off_c, 0, 64, 0
2, 82368, Note_on_c, 0, 63, 61
2, 82368, Note_off_c, 0, 44, 0
2, 82419, Note_off_c, 0, 56, 0
2, 82432, Note_off_c, 0, 63, 0
2, 82432, Note_on_c, 0, 64, 80
2, 82432, Note_on_c, 0, 56, 76
2, 82432, Note_on_c, 0, 37, 65
2, 82496, Note_off_c, 0, 37, 0
2, 82560, Note_on_c, 0, 49, 82
2, 82624, Note_off_c, 0, 49, 0
2, 82688, Note_on_c, 0, 47, 76
2, 82752, Note_off_c, 0, 47, 0
2, 82816, Note_on_c, 0, 45, 75
2, 82880, Note_off_c, 0, 45, 0
2, 82944, Note_on_c, 0, 44, 72
2, 83008, Note_off_c, 0, 44, 0
2, 83072, Note_on_c, 0, 42, 75
2, 83136, Note_off_c, 0, 42, 0
2, 83200, Note_off_c, 0, 64, 0
2, 83200, Note_off_c, 0, 56, 0
2, 83200, Note_on_c, 0, 61, 74
2, 83200, Note_on_c, 0, 56, 88
2, 83200, Note_on_c, 0, 40, 78
2, 83264, Note_off_c, 0, 40, 0
2, 83328, Note_off_c, 0, 61, 0
2, 83328, Note_off_c, 0, 56, 0
2, 83328, Note_on_c, 0, 63, 84
2, 83328, Note_on_c, 0, 60, 86
2, 83328, Note_on_c, 0, 39, 72
2, 83392, Note_off_c, 0, 39, 0
2, 83456, Note_off_c, 0, 63, 0
2, 83456, Note_off_c, 0, 60, 0
2, 83456, Note_on_c, 0, 61, 84
2, 83456, Note_on_c, 0, 64, 84
2, 83456, Note_on_c, 0, 56, 82
2, 83456, Note_on_c, 0, 37, 72
2, 83520, Note_off_c, 0, 37, 0
2, 83584, Note_on_c, 0, 44, 85
2, 83648, Note_off_c, 0, 44, 0
2, 83712, Note_on_c, 0, 40, 78
2, 83776, Note_off_c, 0, 40, 0
2, 83840, Note_on_c, 0, 37, 82
2, 83904, Note_off_c, 0, 37, 0
2, 83968, Note_on_c, 0, 63, 84
2, 83968, Note_on_c, 0, 66, 84
2, 83968, Note_on_c, 0, 61, 95
2, 83968, Note_on_c, 0, 45, 93
2, 83988, Note_off_c, 0, 61, 0
2, 83988, Note_off_c, 0, 64, 0
2, 83988, Note_off_c, 0, 56, 0
2, 84032, Note_off_c, 0, 45, 0
2, 84096, Note_on_c, 0, 42, 82
2, 84160, Note_off_c, 0, 42, 0
2, 84215, Note_off_c, 0, 63, 0
2, 84215, Note_off_c, 0, 66, 0
2, 84224, Note_on_c, 0, 64, 92
2, 84224, Note_on_c, 0, 68, 92
2, 84224, Note_on_c, 0, 37, 74
2, 84288, Note_off_c, 0, 37, 0
2, 84352, Note_on_c, 0, 49, 95
2, 84416, Note_off_c, 0, 49, 0
2, 84429, Note_off_c, 0, 61, 0
2, 84467, Note_off_c, 0, 64, 0
2, 84467, Note_off_c, 0, 68, 0
2, 84480, Note_on_c, 0, 71, 91
2, 84480, Note_on_c, 0, 63, 98
2, 84480, Note_on_c, 0, 66, 98
2, 84480, Note_on_c, 0, 47, 89
2, 84544, Note_off_c, 0, 47, 0
2, 84608, Note_on_c, 0, 54, 91
2, 84672, Note_off_c, 0, 54, 0
2, 84736, Note_on_c, 0, 51, 85
2, 84800, Note_off_c, 0, 51, 0
2, 84864, Note_on_c, 0, 73, 99
2, 84864, Note_on_c, 0, 47, 78
2, 84871, Note_off_c, 0, 71, 0
2, 84928, Note_on_c, 0, 71, 81
2, 84928, Note_off_c, 0, 47, 0
2, 84929, Note_off_c, 0, 73, 0
2, 84966, Note_off_c, 0, 63, 0
2, 84966, Note_off_c, 0, 66, 0
2, 84988, Note_off_c, 0, 71, 0
2, 84992, Note_on_c, 0, 71, 84
2, 84992, Note_on_c, 0, 59, 83
2, 84992, Note_on_c, 0, 64, 83
2, 84992, Note_on_c, 0, 52, 82
2, 85056, Note_on_c, 0, 68, 80
2, 85056, Note_off_c, 0, 52, 0
2, 85057, Note_off_c, 0, 71, 0
2, 85120, Note_on_c, 0, 47, 73
2, 85184, Note_off_c, 0, 47, 0
2, 85248, Note_on_c, 0, 44, 74
2, 85312, Note_off_c, 0, 44, 0
2, 85376, Note_on_c, 0, 64, 75
2, 85376, Note_on_c, 0, 40, 78
2, 85382, Note_off_c, 0, 68, 0
2, 85440, Note_off_c, 0, 40, 0
2, 85478, Note_off_c, 0, 59, 0
2, 85478, Note_off_c, 0, 64, 0
2, 85497, Note_off_c, 0, 64, 0
2, 85504, Note_on_c, 0, 57, 75
2, 85504, Note_on_c, 0, 66, 75
2, 85504, Note_on_c, 0, 62, 82
2, 85504, Note_on_c, 0, 50, 84
2, 85568, Note_off_c, 0, 50, 0
2, 85632, Note_on_c, 0, 45, 71
2, 85696, Note_off_c, 0, 45, 0
2, 85760, Note_on_c, 0, 42, 66
2, 85824, Note_off_c, 0, 42, 0
2, 85888, Note_on_c, 0, 59, 65
2, 85888, Note_on_c, 0, 68, 65
2, 85888, Note_on_c, 0, 47, 72
2, 85895, Note_off_c, 0, 57, 0
2, 85895, Note_off_c, 0, 66, 0
2, 85952, Note_off_c, 0, 47, 0
2, 86016, Note_on_c, 0, 61, 71
2, 86016, Note_on_c, 0, 69, 71
2, 86016, Note_on_c, 0, 64, 88
2, 86016, Note_on_c, 0, 45, 67
2, 86018, Note_off_c, 0, 59, 0
2, 86018, Note_off_c, 0, 68, 0
2, 86026, Note_off_c, 0, 62, 0
2, 86080, Note_off_c, 0, 45, 0
2, 86144, Note_on_c, 0, 47, 67
2, 86208, Note_off_c, 0, 47, 0
2, 86272, Note_off_c, 0, 64, 0
2, 86272, Note_on_c, 0, 56, 58
2, 86272, Note_on_c, 0, 64, 58
2, 86272, Note_on_c, 0, 49, 64
2, 86277, Note_off_c, 0, 61, 0
2, 86277, Note_off_c, 0, 69, 0
2, 86336, Note_off_c, 0, 49, 0
2, 86400, Note_on_c, 0, 37, 56
2, 86464, Note_off_c, 0, 37, 0
2, 86515, Note_off_c, 0, 56, 0
2, 86515, Note_off_c, 0, 64, 0
2, 86528, Note_on_c, 0, 57, 61
2, 86528, Note_on_c, 0, 64, 80
2, 86528, Note_on_c, 0, 42, 68
2, 86592, Note_off_c, 0, 42, 0
2, 86656, Note_on_c, 0, 44, 68
2, 86720, Note_off_c, 0, 44, 0
2, 86784, Note_off_c, 0, 64, 0
2, 86784, Note_on_c, 0, 63, 81
2, 86784, Note_on_c, 0, 45, 65
2, 86848, Note_off_c, 0, 45, 0
2, 86912, Note_on_c, 0, 42, 61
2, 86976, Note_off_c, 0, 42, 0
2, 87040, Note_off_c, 0, 63, 0
2, 87040, Note_on_c, 0, 66, 84
2, 87040, Note_on_c, 0, 39, 57
2, 87104, Note_off_c, 0, 39, 0
2, 87168, Note_on_c, 0, 42, 57
2, 87232, Note_off_c, 0, 42, 0
2, 87271, Note_off_c, 0, 66, 0
2, 87271, Note_on_c, 0, 64, 68
2, 87283, Note_on_c, 0, 66, 68
2, 87296, Note_off_c, 0, 57, 0
2, 87296, Note_on_c, 0, 56, 67
2, 87296, Note_on_c, 0, 64, 68
2, 87296, Note_off_c, 0, 64, 0
2, 87296, Note_off_c, 0, 66, 0
2, 87296, Note_on_c, 0, 44, 59
2, 87360, Note_off_c, 0, 44, 0
2, 87424, Note_off_c, 0, 64, 0
2, 87424, Note_on_c, 0, 63, 66
2, 87424, Note_on_c, 0, 36, 51
2, 87488, Note_off_c, 0, 36, 0
2, 87552, Note_off_c, 0, 56, 0
2, 87552, Note_off_c, 0, 63, 0
2, 87552, Note_on_c, 0, 64, 82
2, 87552, Note_on_c, 0, 44, 64
2, 87552, Note_on_c, 0, 49, 64
2, 87552, Note_on_c, 0, 52, 64
2, 87552, Note_on_c, 0, 56, 64
2, 87637, Note_off_c, 0, 64, 0
2, 87637, Note_on_c, 0, 63, 65
2, 87722, Note_off_c, 0, 63, 0
2, 87722, Note_on_c, 0, 61, 60
2, 87808, Note_off_c, 0, 61, 0
2, 87808, Note_on_c, 0, 61, 64
2, 88064, Note_off_c, 0, 49, 0
2, 88064, Note_off_c, 0, 52, 0
2, 88064, Note_on_c, 0, 45, 64
2, 88064, Note_on_c, 0, 49, 64
2, 88064, Note_on_c, 0, 52, 64
2, 88064, Note_on_c, 0, 55, 64
2, 88064, Note_on_c, 0, 57, 64
2, 88074, Note_off_c, 0, 44, 0
2, 88074, Note_off_c, 0, 56, 0
2, 88192, Note_off_c, 0, 61, 0
2, 88192, Note_on_c, 0, 64, 67
2, 88320, Note_off_c, 0, 64, 0
2, 88320, Note_on_c, 0, 63, 60
2, 88448, Note_off_c, 0, 63, 0
2, 88448, Note_on_c, 0, 61, 61
2, 88550, Note_off_c, 0, 45, 0
2, 88550, Note_off_c, 0, 49, 0
2, 88550, Note_off_c, 0, 52, 0
2, 88550, Note_off_c, 0, 55, 0
2, 88550, Note_off_c, 0, 57, 0
2, 88576, Note_off_c, 0, 61, 0
2, 88576, Note_on_c, 0, 64, 68
2, 88576, Note_on_c, 0, 44, 50
2, 88576, Note_on_c, 0, 49, 50
2, 88576, Note_on_c, 0, 52, 50
2, 88576, Note_on_c, 0, 56, 50
2, 88661, Note_off_c, 0, 64, 0
2, 88661, Note_on_c, 0, 63, 62
2, 88746, Note_off_c, 0, 63, 0
2, 88746, Note_on_c, 0, 61, 62
2, 88832, Note_off_c, 0, 61, 0
2, 88832, Note_on_c, 0, 61, 61
2, 89088, Note_off_c, 0, 49, 0
2, 89088, Note_off_c, 0, 52, 0
2, 89088, Note_on_c, 0, 45, 48
2, 89088, Note_on_c, 0, 49, 48
2, 89088, Note_on_c, 0, 52, 48
2, 89088, Note_on_c, 0, 55, 48
2, 89088, Note_on_c, 0, 57, 48
2, 89098, Note_off_c, 0, 44, 0
2, 89098, Note_off_c, 0, 56, 0
2, 89216, Note_off_c, 0, 61, 0
2, 89216, Note_on_c, 0, 64, 70
2, 89344, Note_off_c, 0, 64, 0
2, 89344, Note_on_c, 0, 63, 66
2, 89472, Note_off_c, 0, 63, 0
2, 89472, Note_on_c, 0, 61, 60
2, 89574, Note_off_c, 0, 45, 0
2, 89574, Note_off_c, 0, 49, 0
2, 89574, Note_off_c, 0, 52, 0
2, 89574, Note_off_c, 0, 55, 0
2, 89574, Note_off_c, 0, 57, 0
2, 89600, Note_off_c, 0, 61, 0
2, 89600, Note_on_c, 0, 64, 64
2, 89600, Note_on_c, 0, 44, 54
2, 89600, Note_on_c, 0, 56, 54
2, 89600, Note_on_c, 0, 49, 70
2, 89600, Note_on_c, 0, 52, 70
2, 89685, Note_off_c, 0, 64, 0
2, 89685, Note_on_c, 0, 63, 55
2, 89770, Note_off_c, 0, 63, 0
2, 89770, Note_on_c, 0, 61, 53
2, 89856, Note_off_c, 0, 61, 0
2, 89856, Note_on_c, 0, 61, 71
2, 89856, Note_on_c, 0, 68, 71
2, 89856, Note_off_c, 0, 49, 0
2, 89856, Note_off_c, 0, 52, 0
2, 89856, Note_on_c, 0, 49, 57
2, 89856, Note_on_c, 0, 53, 57
2, 90624, Note_off_c, 0, 61, 0
2, 90624, Note_off_c, 0, 68, 0
2, 90624, Note_on_c, 0, 77, 84
2, 90624, Note_off_c, 0, 44, 0
2, 90624, Note_off_c, 0, 56, 0
2, 90624, Note_off_c, 0, 49, 0
2, 90624, Note_off_c, 0, 53, 0
2, 90624, Note_on_c, 0, 49, 56
2, 90624, Note_on_c, 0, 56, 56
2, 90645, Note_off_c, 0, 77, 0
2, 90666, Note_on_c, 0, 78, 71
2, 90687, Note_off_c, 0, 78, 0
2, 90709, Note_on_c, 0, 80, 68
2, 90730, Note_off_c, 0, 80, 0
2, 90752, Note_on_c, 0, 77, 57
2, 90773, Note_off_c, 0, 77, 0
2, 90794, Note_on_c, 0, 75, 59
2, 90815, Note_off_c, 0, 75, 0
2, 90837, Note_on_c, 0, 73, 58
2, 90858, Note_off_c, 0, 73, 0
2, 90880, Note_on_c, 0, 75, 68
2, 90901, Note_off_c, 0, 75, 0
2, 90922, Note_on_c, 0, 77, 65
2, 90943, Note_off_c, 0, 77, 0
2, 90965, Note_on_c, 0, 78, 65
2, 90986, Note_off_c, 0, 78, 0
2, 91008, Note_on_c, 0, 77, 67
2, 91029, Note_off_c, 0, 77, 0
2, 91050, Note_on_c, 0, 75, 65
2, 91071, Note_off_c, 0, 75, 0
2, 91093, Note_on_c, 0, 73, 60
2, 91114, Note_off_c, 0, 73, 0
2, 91136, Note_on_c, 0, 75, 66
2, 91157, Note_off_c, 0, 75, 0
2, 91178, Note_on_c, 0, 77, 69
2, 91199, Note_off_c, 0, 77, 0
2, 91221, Note_on_c, 0, 78, 74
2, 91242, Note_off_c, 0, 78, 0
2, 91264, Note_on_c, 0, 77, 61
2, 91285, Note_off_c, 0, 77, 0
2, 91306, Note_on_c, 0, 80, 71
2, 91327, Note_off_c, 0, 80, 0
2, 91392, Note_on_c, 0, 78, 59
2, 91413, Note_off_c, 0, 78, 0
2, 91434, Note_on_c, 0, 77, 61
2, 91455, Note_off_c, 0, 77, 0
2, 91477, Note_on_c, 0, 75, 58
2, 91498, Note_off_c, 0, 75, 0
2, 91520, Note_on_c, 0, 77, 65
2, 91541, Note_off_c, 0, 77, 0
2, 91562, Note_on_c, 0, 73, 54
2, 91583, Note_off_c, 0, 73, 0
2, 91648, Note_on_c, 0, 65, 61
2, 91648, Note_off_c, 0, 49, 0
2, 91648, Note_off_c, 0, 56, 0
2, 91648, Note_on_c, 0, 49, 54
2, 91648, Note_on_c, 0, 56, 54
2, 91669, Note_off_c, 0, 65, 0
2, 91690, Note_on_c, 0, 66, 64
2, 91733, Note_off_c, 0, 66, 0
2, 91733, Note_on_c, 0, 68, 67
2, 91776, Note_off_c, 0, 68, 0
2, 91776, Note_on_c, 0, 65, 55
2, 91818, Note_off_c, 0, 65, 0
2, 91818, Note_on_c, 0, 63, 59
2, 91861, Note_off_c, 0, 63, 0
2, 91861, Note_on_c, 0, 61, 61
2, 91904, Note_off_c, 0, 61, 0
2, 91904, Note_on_c, 0, 63, 69
2, 91946, Note_off_c, 0, 63, 0
2, 91946, Note_on_c, 0, 65, 73
2, 91989, Note_off_c, 0, 65, 0
2, 91989, Note_on_c, 0, 66, 71
2, 92032, Note_off_c, 0, 66, 0
2, 92032, Note_on_c, 0, 65, 65
2, 92074, Note_off_c, 0, 65, 0
2, 92074, Note_on_c, 0, 63, 59
2, 92117, Note_off_c, 0, 63, 0
2, 92117, Note_on_c, 0, 61, 60
2, 92157, Note_off_c, 0, 61, 0
2, 92160, Note_on_c, 0, 63, 83
2, 92202, Note_off_c, 0, 63, 0
2, 92202, Note_on_c, 0, 65, 70
2, 92245, Note_off_c, 0, 65, 0
2, 92245, Note_on_c, 0, 66, 63
2, 92288, Note_off_c, 0, 66, 0
2, 92288, Note_on_c, 0, 65, 65
2, 92330, Note_off_c, 0, 65, 0
2, 92330, Note_on_c, 0, 68, 70
2, 92370, Note_off_c, 0, 68, 0
2, 92416, Note_on_c, 0, 66, 71
2, 92458, Note_off_c, 0, 66, 0
2, 92458, Note_on_c, 0, 65, 61
2, 92501, Note_off_c, 0, 65, 0
2, 92501, Note_on_c, 0, 63, 59
2, 92544, Note_off_c, 0, 63, 0
2, 92544, Note_on_c, 0, 65, 68
2, 92586, Note_off_c, 0, 65, 0
2, 92586, Note_on_c, 0, 61, 62
2, 92626, Note_off_c, 0, 61, 0
2, 92648, Note_off_c, 0, 49, 0
2, 92648, Note_off_c, 0, 56, 0
2, 92648, Note_on_c, 0, 68, 56
2, 92661, Note_on_c, 0, 70, 56
2, 92672, Note_on_c, 0, 89, 64
2, 92672, Note_on_c, 0, 68, 56
2, 92672, Note_off_c, 0, 68, 0
2, 92672, Note_off_c, 0, 70, 0
2, 92693, Note_off_c, 0, 89, 0
2, 92714, Note_on_c, 0, 90, 73
2, 92735, Note_off_c, 0, 90, 0
2, 92757, Note_on_c, 0, 92, 76
2, 92778, Note_off_c, 0, 92, 0
2, 92800, Note_on_c, 0, 89, 71
2, 92800, Note_on_c, 0, 73, 63
2, 92802, Note_off_c, 0, 68, 0
2, 92821, Note_off_c, 0, 89, 0
2, 92842, Note_on_c, 0, 87, 64
2, 92860, Note_off_c, 0, 73, 0
2, 92863, Note_off_c, 0, 87, 0
2, 92885, Note_on_c, 0, 85, 72
2, 92897, Note_on_c, 0, 72, 54
2, 92906, Note_off_c, 0, 85, 0
2, 92908, Note_on_c, 0, 73, 54
2, 92928, Note_on_c, 0, 87, 85
2, 92928, Note_on_c, 0, 72, 54
2, 92928, Note_off_c, 0, 72, 0
2, 92928, Note_off_c, 0, 73, 0
2, 92949, Note_off_c, 0, 87, 0
2, 92970, Note_on_c, 0, 89, 86
2, 92991, Note_off_c, 0, 89, 0
2, 93013, Note_on_c, 0, 90, 83
2, 93034, Note_off_c, 0, 90, 0
2, 93056, Note_on_c, 0, 89, 81
2, 93056, Note_on_c, 0, 73, 58
2, 93058, Note_off_c, 0, 72, 0
2, 93077, Note_off_c, 0, 89, 0
2, 93098, Note_on_c, 0, 87, 81
2, 93116, Note_off_c, 0, 73, 0
2, 93119, Note_off_c, 0, 87, 0
2, 93141, Note_on_c, 0, 85, 81
2, 93161, Note_on_c, 0, 78, 58
2, 93162, Note_off_c, 0, 85, 0
2, 93173, Note_on_c, 0, 80, 58
2, 93184, Note_on_c, 0, 87, 116
2, 93184, Note_on_c, 0, 78, 58
2, 93184, Note_off_c, 0, 78, 0
2, 93184, Note_off_c, 0, 80, 0
2, 93226, Note_off_c, 0, 87, 0
2, 93226, Note_on_c, 0, 89, 96
2, 93248, Note_on_c, 0, 75, 67
2, 93249, Note_off_c, 0, 78, 0
2, 93269, Note_off_c, 0, 89, 0
2, 93269, Note_on_c, 0, 90, 91
2, 93312, Note_off_c, 0, 90, 0
2, 93312, Note_on_c, 0, 89, 103
2, 93312, Note_on_c, 0, 73, 56
2, 93313, Note_off_c, 0, 75, 0
2, 93354, Note_off_c, 0, 89, 0
2, 93354, Note_on_c, 0, 92, 105
2, 93372, Note_off_c, 0, 73, 0
2, 93397, Note_off_c, 0, 92, 0
2, 93419, Note_on_c, 0, 72, 74
2, 93429, Note_on_c, 0, 73, 74
2, 93440, Note_on_c, 0, 90, 85
2, 93440, Note_on_c, 0, 72, 74
2, 93440, Note_off_c, 0, 72, 0
2, 93440, Note_off_c, 0, 73, 0
2, 93482, Note_off_c, 0, 90, 0
2, 93482, Note_on_c, 0, 89, 85
2, 93525, Note_off_c, 0, 89, 0
2, 93525, Note_on_c, 0, 87, 88
2, 93568, Note_off_c, 0, 87, 0
2, 93568, Note_on_c, 0, 89, 97
2, 93568, Note_on_c, 0, 73, 74
2, 93570, Note_off_c, 0, 72, 0
2, 93610, Note_off_c, 0, 89, 0
2, 93610, Note_on_c, 0, 85, 81
2, 93628, Note_off_c, 0, 73, 0
2, 93653, Note_off_c, 0, 85, 0
2, 93672, Note_on_c, 0, 68, 89
2, 93685, Note_on_c, 0, 70, 89
2, 93696, Note_on_c, 0, 80, 86
2, 93696, Note_on_c, 0, 68, 89
2, 93696, Note_off_c, 0, 68, 0
2, 93696, Note_off_c, 0, 70, 0
2, 93714, Note_off_c, 0, 80, 0
2, 93719, Note_on_c, 0, 82, 86
2, 93737, Note_off_c, 0, 82, 0
2, 93742, Note_on_c, 0, 80, 86
2, 93760, Note_off_c, 0, 80, 0
2, 93765, Note_on_c, 0, 82, 86
2, 93783, Note_off_c, 0, 82, 0
2, 93788, Note_on_c, 0, 80, 86
2, 93806, Note_off_c, 0, 80, 0
2, 93810, Note_on_c, 0, 82, 86
2, 93824, Note_on_c, 0, 73, 117
2, 93826, Note_off_c, 0, 68, 0
2, 93827, Note_off_c, 0, 82, 0
2, 93832, Note_on_c, 0, 80, 86
2, 93849, Note_off_c, 0, 80, 0
2, 93854, Note_on_c, 0, 82, 86
2, 93871, Note_off_c, 0, 82, 0
2, 93876, Note_on_c, 0, 80, 86
2, 93884, Note_off_c, 0, 73, 0
2, 93893, Note_off_c, 0, 80, 0
2, 93897, Note_on_c, 0, 82, 86
2, 93913, Note_off_c, 0, 82, 0
2, 93918, Note_on_c, 0, 80, 86
2, 93920, Note_on_c, 0, 72, 97
2, 93932, Note_on_c, 0, 73, 97
2, 93934, Note_off_c, 0, 80, 0
2, 93939, Note_on_c, 0, 82, 86
2, 93952, Note_on_c, 0, 72, 97
2, 93952, Note_off_c, 0, 72, 0
2, 93952, Note_off_c, 0, 73, 0
2, 93955, Note_off_c, 0, 82, 0
2, 93960, Note_on_c, 0, 80, 86
2, 93976, Note_off_c, 0, 80, 0
2, 93981, Note_on_c, 0, 82, 86
2, 93997, Note_off_c, 0, 82, 0
2, 94001, Note_on_c, 0, 80, 86
2, 94017, Note_off_c, 0, 80, 0
2, 94021, Note_on_c, 0, 82, 86
2, 94037, Note_off_c, 0, 82, 0
2, 94041, Note_on_c, 0, 80, 86
2, 94057, Note_off_c, 0, 80, 0
2, 94061, Note_on_c, 0, 82, 86
2, 94077, Note_off_c, 0, 82, 0
2, 94080, Note_on_c, 0, 73, 102
2, 94081, Note_on_c, 0, 80, 86
2, 94082, Note_off_c, 0, 72, 0
2, 94097, Note_off_c, 0, 80, 0
2, 94100, Note_on_c, 0, 82, 86
2, 94115, Note_off_c, 0, 82, 0
2, 94119, Note_on_c, 0, 80, 86
2, 94134, Note_off_c, 0, 80, 0
2, 94138, Note_on_c, 0, 82, 86
2, 94140, Note_off_c, 0, 73, 0
2, 94153, Note_off_c, 0, 82, 0
2, 94157, Note_on_c, 0, 80, 86
2, 94172, Note_off_c, 0, 80, 0
2, 94176, Note_on_c, 0, 82, 86
2, 94186, Note_on_c, 0, 78, 98
2, 94191, Note_off_c, 0, 82, 0
2, 94194, Note_on_c, 0, 80, 86
2, 94198, Note_on_c, 0, 80, 98
2, 94208, Note_off_c, 0, 80, 0
2, 94208, Note_on_c, 0, 78, 98
2, 94208, Note_off_c, 0, 78, 0
2, 94208, Note_off_c, 0, 80, 0
2, 94212, Note_on_c, 0, 82, 86
2, 94226, Note_off_c, 0, 82, 0
2, 94230, Note_on_c, 0, 80, 86
2, 94244, Note_off_c, 0, 80, 0
2, 94248, Note_on_c, 0, 82, 86
2, 94262, Note_off_c, 0, 82, 0
2, 94266, Note_on_c, 0, 80, 86
2, 94272, Note_on_c, 0, 75, 72
2, 94273, Note_off_c, 0, 78, 0
2, 94280, Note_off_c, 0, 80, 0
2, 94285, Note_on_c, 0, 82, 86
2, 94300, Note_off_c, 0, 82, 0
2, 94304, Note_on_c, 0, 80, 86
2, 94319, Note_off_c, 0, 80, 0
2, 94323, Note_on_c, 0, 82, 86
2, 94336, Note_on_c, 0, 73, 63
2, 94337, Note_off_c, 0, 75, 0
2, 94338, Note_off_c, 0, 82, 0
2, 94342, Note_on_c, 0, 80, 86
2, 94357, Note_off_c, 0, 80, 0
2, 94361, Note_on_c, 0, 82, 86
2, 94376, Note_off_c, 0, 82, 0
2, 94381, Note_on_c, 0, 80, 86
2, 94396, Note_off_c, 0, 73, 0
2, 94397, Note_off_c, 0, 80, 0
2, 94401, Note_on_c, 0, 82, 86
2, 94417, Note_off_c, 0, 82, 0
2, 94421, Note_on_c, 0, 80, 86
2, 94437, Note_off_c, 0, 80, 0
2, 94441, Note_on_c, 0, 82, 86
2, 94442, Note_on_c, 0, 72, 70
2, 94454, Note_on_c, 0, 73, 70
2, 94457, Note_off_c, 0, 82, 0
2, 94461, Note_on_c, 0, 80, 86
2, 94464, Note_on_c, 0, 72, 70
2, 94464, Note_off_c, 0, 72, 0
2, 94464, Note_off_c, 0, 73, 0
2, 94477, Note_off_c, 0, 80, 0
2, 94482, Note_on_c, 0, 82, 86
2, 94498, Note_off_c, 0, 82, 0
2, 94503, Note_on_c, 0, 80, 86
2, 94519, Note_off_c, 0, 80, 0
2, 94524, Note_on_c, 0, 82, 86
2, 94540, Note_off_c, 0, 82, 0
2, 94545, Note_on_c, 0, 80, 86
2, 94561, Note_off_c, 0, 80, 0
2, 94566, Note_on_c, 0, 82, 86
2, 94582, Note_off_c, 0, 82, 0
2, 94588, Note_on_c, 0, 80, 86
2, 94592, Note_on_c, 0, 73, 70
2, 94594, Note_off_c, 0, 72, 0
2, 94605, Note_off_c, 0, 80, 0
2, 94610, Note_on_c, 0, 82, 86
2, 94627, Note_off_c, 0, 82, 0
2, 94632, Note_on_c, 0, 80, 86
2, 94649, Note_off_c, 0, 80, 0
2, 94652, Note_off_c, 0, 73, 0
2, 94654, Note_on_c, 0, 82, 86
2, 94667, Note_off_c, 0, 82, 0
2, 94696, Note_on_c, 0, 68, 78
2, 94709, Note_on_c, 0, 70, 78
2, 94720, Note_on_c, 0, 68, 78
2, 94720, Note_off_c, 0, 68, 0
2, 94720, Note_off_c, 0, 70, 0
2, 94720, Note_on_c, 0, 53, 71
2, 94762, Note_off_c, 0, 53, 0
2, 94762, Note_on_c, 0, 54, 74
2, 94805, Note_off_c, 0, 54, 0
2, 94805, Note_on_c, 0, 56, 77
2, 94848, Note_on_c, 0, 73, 84
2, 94848, Note_off_c, 0, 56, 0
2, 94848, Note_on_c, 0, 53, 75
2, 94850, Note_off_c, 0, 68, 0
2, 94890, Note_off_c, 0, 53, 0
2, 94890, Note_on_c, 0, 51, 73
2, 94908, Note_off_c, 0, 73, 0
2, 94933, Note_off_c, 0, 51, 0
2, 94933, Note_on_c, 0, 49, 77
2, 94944, Note_on_c, 0, 72, 87
2, 94956, Note_on_c, 0, 73, 87
2, 94976, Note_on_c, 0, 72, 87
2, 94976, Note_off_c, 0, 72, 0
2, 94976, Note_off_c, 0, 73, 0
2, 94976, Note_off_c, 0, 49, 0
2, 94976, Note_on_c, 0, 51, 80
2, 95018, Note_off_c, 0, 51, 0
2, 95018, Note_on_c, 0, 53, 78
2, 95061, Note_off_c, 0, 53, 0
2, 95061, Note_on_c, 0, 54, 79
2, 95104, Note_on_c, 0, 73, 93
2, 95104, Note_off_c, 0, 54, 0
2, 95104, Note_on_c, 0, 53, 73
2, 95106, Note_off_c, 0, 72, 0
2, 95146, Note_off_c, 0, 53, 0
2, 95146, Note_on_c, 0, 51, 74
2, 95164, Note_off_c, 0, 73, 0
2, 95189, Note_off_c, 0, 51, 0
2, 95189, Note_on_c, 0, 49, 69
2, 95210, Note_on_c, 0, 78, 87
2, 95222, Note_on_c, 0, 80, 87
2, 95232, Note_on_c, 0, 78, 87
2, 95232, Note_off_c, 0, 78, 0
2, 95232, Note_off_c, 0, 80, 0
2, 95232, Note_off_c, 0, 49, 0
2, 95232, Note_on_c, 0, 51, 78
2, 95274, Note_off_c, 0, 51, 0
2, 95274, Note_on_c, 0, 53, 75
2, 95296, Note_on_c, 0, 75, 90
2, 95297, Note_off_c, 0, 78, 0
2, 95317, Note_off_c, 0, 53, 0
2, 95317, Note_on_c, 0, 54, 77
2, 95360, Note_on_c, 0, 73, 85
2, 95360, Note_off_c, 0, 54, 0
2, 95360, Note_on_c, 0, 53, 70
2, 95361, Note_off_c, 0, 75, 0
2, 95402, Note_off_c, 0, 53, 0
2, 95402, Note_on_c, 0, 56, 73
2, 95420, Note_off_c, 0, 73, 0
2, 95445, Note_off_c, 0, 56, 0
2, 95466, Note_on_c, 0, 72, 86
2, 95478, Note_on_c, 0, 73, 86
2, 95488, Note_on_c, 0, 72, 86
2, 95488, Note_off_c, 0, 72, 0
2, 95488, Note_off_c, 0, 73, 0
2, 95488, Note_on_c, 0, 54, 70
2, 95530, Note_off_c, 0, 54, 0
2, 95530, Note_on_c, 0, 53, 67
2, 95573, Note_off_c, 0, 53, 0
2, 95573, Note_on_c, 0, 51, 74
2, 95616, Note_on_c, 0, 73, 90
2, 95616, Note_off_c, 0, 51, 0
2, 95616, Note_on_c, 0, 53, 76
2, 95618, Note_off_c, 0, 72, 0
2, 95658, Note_off_c, 0, 53, 0
2, 95658, Note_on_c, 0, 49, 68
2, 95676, Note_off_c, 0, 73, 0
2, 95701, Note_off_c, 0, 49, 0
2, 95744, Note_on_c, 0, 70, 88
2, 95744, Note_on_c, 0, 66, 88
2, 95744, Note_on_c, 0, 56, 65
2, 95744, Note_on_c, 0, 54, 48
2, 95786, Note_off_c, 0, 54, 0
2, 95786, Note_on_c, 0, 53, 55
2, 95829, Note_off_c, 0, 53, 0
2, 95829, Note_on_c, 0, 51, 49
2, 95840, Note_off_c, 0, 70, 0
2, 95840, Note_on_c, 0, 72, 98
2, 95872, Note_off_c, 0, 66, 0
2, 95872, Note_off_c, 0, 72, 0
2, 95872, Note_on_c, 0, 68, 82
2, 95872, Note_on_c, 0, 65, 93
2, 95872, Note_off_c, 0, 56, 0
2, 95872, Note_off_c, 0, 51, 0
2, 95872, Note_on_c, 0, 56, 73
2, 95872, Note_on_c, 0, 53, 60
2, 95914, Note_off_c, 0, 53, 0
2, 95914, Note_on_c, 0, 49, 52
2, 95957, Note_off_c, 0, 49, 0
2, 96000, Note_off_c, 0, 68, 0
2, 96000, Note_off_c, 0, 65, 0
2, 96000, Note_on_c, 0, 70, 111
2, 96000, Note_on_c, 0, 66, 110
2, 96000, Note_off_c, 0, 56, 0
2, 96000, Note_on_c, 0, 56, 72
2, 96000, Note_on_c, 0, 54, 49
2, 96042, Note_off_c, 0, 54, 0
2, 96042, Note_on_c, 0, 53, 53
2, 96085, Note_off_c, 0, 53, 0
2, 96085, Note_on_c, 0, 51, 49
2, 96096, Note_off_c, 0, 70, 0
2, 96096, Note_on_c, 0, 72, 113
2, 96128, Note_off_c, 0, 66, 0
2, 96128, Note_off_c, 0, 72, 0
2, 96128, Note_on_c, 0, 68, 94
2, 96128, Note_on_c, 0, 65, 104
2, 96128, Note_off_c, 0, 56, 0
2, 96128, Note_off_c, 0, 51, 0
2, 96128, Note_on_c, 0, 56, 75
2, 96128, Note_on_c, 0, 53, 55
2, 96170, Note_off_c, 0, 53, 0
2, 96170, Note_on_c, 0, 49, 52
2, 96213, Note_off_c, 0, 49, 0
2, 96256, Note_off_c, 0, 68, 0
2, 96256, Note_off_c, 0, 65, 0
2, 96256, Note_on_c, 0, 70, 116
2, 96256, Note_on_c, 0, 66, 111
2, 96256, Note_off_c, 0, 56, 0
2, 96256, Note_on_c, 0, 56, 72
2, 96256, Note_on_c, 0, 54, 48
2, 96298, Note_off_c, 0, 54, 0
2, 96298, Note_on_c, 0, 53, 54
2, 96341, Note_off_c, 0, 53, 0
2, 96341, Note_on_c, 0, 51, 53
2, 96352, Note_off_c, 0, 70, 0
2, 96352, Note_on_c, 0, 72, 113
2, 96384, Note_off_c, 0, 66, 0
2, 96384, Note_off_c, 0, 72, 0
2, 96384, Note_on_c, 0, 70, 101
2, 96384, Note_on_c, 0, 66, 107
2, 96384, Note_off_c, 0, 56, 0
2, 96384, Note_off_c, 0, 51, 0
2, 96384, Note_on_c, 0, 56, 78
2, 96384, Note_on_c, 0, 54, 54
2, 96426, Note_off_c, 0, 54, 0
2, 96426, Note_on_c, 0, 53, 50
2, 96469, Note_off_c, 0, 53, 0
2, 96469, Note_on_c, 0, 51, 54
2, 96480, Note_off_c, 0, 70, 0
2, 96480, Note_on_c, 0, 72, 105
2, 96512, Note_off_c, 0, 66, 0
2, 96512, Note_off_c, 0, 72, 0
2, 96512, Note_on_c, 0, 70, 99
2, 96512, Note_on_c, 0, 66, 105
2, 96512, Note_off_c, 0, 56, 0
2, 96512, Note_off_c, 0, 51, 0
2, 96512, Note_on_c, 0, 56, 77
2, 96512, Note_on_c, 0, 54, 58
2, 96554, Note_off_c, 0, 54, 0
2, 96554, Note_on_c, 0, 53, 51
2, 96597, Note_off_c, 0, 53, 0
2, 96597, Note_on_c, 0, 51, 51
2, 96608, Note_off_c, 0, 70, 0
2, 96608, Note_on_c, 0, 72, 112
2, 96640, Note_off_c, 0, 66, 0
2, 96640, Note_off_c, 0, 72, 0
2, 96640, Note_on_c, 0, 70, 106
2, 96640, Note_on_c, 0, 66, 105
2, 96640, Note_off_c, 0, 56, 0
2, 96640, Note_off_c, 0, 51, 0
2, 96640, Note_on_c, 0, 56, 77
2, 96640, Note_on_c, 0, 54, 57
2, 96682, Note_off_c, 0, 54, 0
2, 96682, Note_on_c, 0, 53, 54
2, 96725, Note_off_c, 0, 53, 0
2, 96725, Note_on_c, 0, 51, 52
2, 96736, Note_off_c, 0, 70, 0
2, 96736, Note_on_c, 0, 72, 110
2, 96768, Note_off_c, 0, 66, 0
2, 96768, Note_off_c, 0, 72, 0
2, 96768, Note_on_c, 0, 69, 127
2, 96768, Note_on_c, 0, 73, 127
2, 96768, Note_off_c, 0, 56, 0
2, 96768, Note_off_c, 0, 51, 0
2, 96768, Note_on_c, 0, 61, 84
2, 96768, Note_on_c, 0, 49, 119
2, 96960, Note_off_c, 0, 49, 0
2, 96960, Note_on_c, 0, 52, 109
2, 96992, Note_off_c, 0, 52, 0
2, 97024, Note_on_c, 0, 57, 114
2, 97028, Note_off_c, 0, 61, 0
2, 97056, Note_off_c, 0, 57, 0
2, 97088, Note_on_c, 0, 61, 127
2, 97280, Note_off_c, 0, 69, 0
2, 97280, Note_off_c, 0, 73, 0
2, 97280, Note_on_c, 0, 69, 127
2, 97280, Note_on_c, 0, 73, 127
2, 97280, Note_off_c, 0, 61, 0
2, 97280, Note_on_c, 0, 64, 100
2, 97280, Note_on_c, 0, 57, 120
2, 97472, Note_off_c, 0, 69, 0
2, 97472, Note_off_c, 0, 73, 0
2, 97472, Note_on_c, 0, 73, 110
2, 97472, Note_on_c, 0, 76, 110
2, 97536, Note_off_c, 0, 73, 0
2, 97536, Note_off_c, 0, 76, 0
2, 97536, Note_on_c, 0, 81, 96
2, 97536, Note_on_c, 0, 73, 112
2, 97536, Note_on_c, 0, 76, 112
2, 97728, Note_off_c, 0, 81, 0
2, 97728, Note_on_c, 0, 81, 109
2, 97760, Note_off_c, 0, 81, 0
2, 97792, Note_off_c, 0, 73, 0
2, 97792, Note_off_c, 0, 76, 0
2, 97792, Note_on_c, 0, 78, 97
2, 97792, Note_on_c, 0, 69, 97
2, 97792, Note_on_c, 0, 73, 97
2, 97856, Note_off_c, 0, 78, 0
2, 97856, Note_on_c, 0, 76, 93
2, 97984, Note_off_c, 0, 69, 0
2, 97984, Note_off_c, 0, 73, 0
2, 97984, Note_on_c, 0, 64, 94
2, 97984, Note_on_c, 0, 71, 94
2, 98048, Note_off_c, 0, 76, 0
2, 98048, Note_off_c, 0, 64, 0
2, 98048, Note_off_c, 0, 71, 0
2, 98048, Note_on_c, 0, 81, 121
2, 98048, Note_on_c, 0, 61, 92
2, 98048, Note_on_c, 0, 69, 92
2, 98144, Note_off_c, 0, 81, 0
2, 98144, Note_on_c, 0, 85, 106
2, 98176, Note_off_c, 0, 85, 0
2, 98176, Note_on_c, 0, 88, 103
2, 98197, Note_off_c, 0, 88, 0
2, 98218, Note_on_c, 0, 88, 99
2, 98239, Note_off_c, 0, 88, 0
2, 98261, Note_on_c, 0, 88, 99
2, 98282, Note_off_c, 0, 88, 0
2, 98304, Note_off_c, 0, 61, 0
2, 98304, Note_off_c, 0, 69, 0
2, 98304, Note_on_c, 0, 88, 92
2, 98304, Note_on_c, 0, 76, 114
2, 98304, Note_off_c, 0, 64, 0
2, 98304, Note_off_c, 0, 57, 0
2, 98304, Note_on_c, 0, 61, 85
2, 98304, Note_on_c, 0, 49, 104
2, 98496, Note_off_c, 0, 49, 0
2, 98496, Note_on_c, 0, 52, 95
2, 98528, Note_off_c, 0, 52, 0
2, 98560, Note_on_c, 0, 57, 102
2, 98592, Note_off_c, 0, 57, 0
2, 98624, Note_on_c, 0, 61, 125
2, 98816, Note_off_c, 0, 88, 0
2, 98816, Note_off_c, 0, 76, 0
2, 98816, Note_on_c, 0, 81, 78
2, 98816, Note_off_c, 0, 61, 0
2, 98816, Note_off_c, 0, 61, 0
2, 98816, Note_on_c, 0, 57, 84
2, 98816, Note_on_c, 0, 61, 84
2, 99008, Note_off_c, 0, 57, 0
2, 99008, Note_off_c, 0, 61, 0
2, 99008, Note_on_c, 0, 61, 89
2, 99008, Note_on_c, 0, 64, 89
2, 99072, Note_off_c, 0, 81, 0
2, 99072, Note_on_c, 0, 81, 94
2, 99072, Note_on_c, 0, 69, 83
2, 99072, Note_off_c, 0, 61, 0
2, 99072, Note_off_c, 0, 64, 0
2, 99072, Note_on_c, 0, 61, 87
2, 99072, Note_on_c, 0, 64, 87
2, 99168, Note_off_c, 0, 69, 0
2, 99168, Note_on_c, 0, 69, 99
2, 99168, Note_on_c, 0, 73, 99
2, 99200, Note_off_c, 0, 69, 0
2, 99200, Note_off_c, 0, 73, 0
2, 99200, Note_on_c, 0, 73, 92
2, 99200, Note_on_c, 0, 76, 92
2, 99242, Note_off_c, 0, 73, 0
2, 99242, Note_off_c, 0, 76, 0
2, 99242, Note_on_c, 0, 73, 88
2, 99242, Note_on_c, 0, 76, 88
2, 99264, Note_off_c, 0, 81, 0
2, 99264, Note_on_c, 0, 81, 91
2, 99285, Note_off_c, 0, 73, 0
2, 99285, Note_off_c, 0, 76, 0
2, 99285, Note_on_c, 0, 73, 84
2, 99285, Note_on_c, 0, 76, 84
2, 99328, Note_off_c, 0, 81, 0
2, 99328, Note_off_c, 0, 73, 0
2, 99328, Note_off_c, 0, 76, 0
2, 99328, Note_on_c, 0, 78, 89
2, 99328, Note_on_c, 0, 73, 88
2, 99328, Note_on_c, 0, 76, 88
2, 99328, Note_off_c, 0, 61, 0
2, 99328, Note_off_c, 0, 64, 0
2, 99328, Note_on_c, 0, 57, 80
2, 99328, Note_on_c, 0, 61, 80
2, 99392, Note_off_c, 0, 78, 0
2, 99392, Note_on_c, 0, 76, 82
2, 99520, Note_off_c, 0, 57, 0
2, 99520, Note_off_c, 0, 61, 0
2, 99520, Note_on_c, 0, 52, 84
2, 99520, Note_on_c, 0, 59, 84
2, 99584, Note_off_c, 0, 73, 0
2, 99584, Note_off_c, 0, 76, 0
2, 99584, Note_off_c, 0, 76, 0
2, 99584, Note_on_c, 0, 81, 101
2, 99584, Note_on_c, 0, 69, 69
2, 99584, Note_off_c, 0, 52, 0
2, 99584, Note_off_c, 0, 59, 0
2, 99584, Note_on_c, 0, 49, 85
2, 99584, Note_on_c, 0, 57, 85
2, 99680, Note_off_c, 0, 69, 0
2, 99680, Note_on_c, 0, 69, 91
2, 99680, Note_on_c, 0, 73, 91
2, 99712, Note_off_c, 0, 69, 0
2, 99712, Note_off_c, 0, 73, 0
2, 99712, Note_on_c, 0, 76, 96
2, 99754, Note_off_c, 0, 76, 0
2, 99754, Note_on_c, 0, 76, 91
2, 99776, Note_off_c, 0, 81, 0
2, 99776, Note_on_c, 0, 81, 89
2, 99797, Note_off_c, 0, 76, 0
2, 99797, Note_on_c, 0, 76, 82
2, 99840, Note_off_c, 0, 81, 0
2, 99840, Note_off_c, 0, 76, 0
2, 99840, Note_on_c, 0, 78, 82
2, 99840, Note_on_c, 0, 69, 76
2, 99840, Note_on_c, 0, 73, 76
2, 99840, Note_off_c, 0, 49, 0
2, 99840, Note_off_c, 0, 57, 0
2, 99840, Note_on_c, 0, 57, 87
2, 99840, Note_on_c, 0, 61, 87
2, 99904, Note_off_c, 0, 78, 0
2, 99904, Note_on_c, 0, 76, 77
2, 100032, Note_off_c, 0, 57, 0
2, 100032, Note_off_c, 0, 61, 0
2, 100032, Note_on_c, 0, 52, 70
2, 100032, Note_on_c, 0, 59, 70
2, 100096, Note_off_c, 0, 69, 0
2, 100096, Note_off_c, 0, 73, 0
2, 100096, Note_off_c, 0, 76, 0
2, 100096, Note_on_c, 0, 81, 93
2, 100096, Note_on_c, 0, 69, 83
2, 100096, Note_on_c, 0, 73, 83
2, 100096, Note_off_c, 0, 52, 0
2, 100096, Note_off_c, 0, 59, 0
2, 100096, Note_on_c, 0, 49, 73
2, 100096, Note_on_c, 0, 57, 73
2, 100288, Note_off_c, 0, 81, 0
2, 100288, Note_off_c, 0, 69, 0
2, 100288, Note_off_c, 0, 73, 0
2, 100288, Note_on_c, 0, 81, 88
2, 100288, Note_on_c, 0, 73, 92
2, 100288, Note_on_c, 0, 76, 92
2, 100352, Note_off_c, 0, 81, 0
2, 100352, Note_off_c, 0, 73, 0
2, 100352, Note_off_c, 0, 76, 0
2, 100352, Note_on_c, 0, 78, 74
2, 100352, Note_on_c, 0, 69, 78
2, 100352, Note_on_c, 0, 73, 78
2, 100352, Note_off_c, 0, 49, 0
2, 100352, Note_off_c, 0, 57, 0
2, 100352, Note_on_c, 0, 57, 81
2, 100352, Note_on_c, 0, 61, 81
2, 100416, Note_off_c, 0, 78, 0
2, 100416, Note_on_c, 0, 76, 83
2, 100544, Note_off_c, 0, 57, 0
2, 100544, Note_off_c, 0, 61, 0
2, 100544, Note_on_c, 0, 52, 74
2, 100544, Note_on_c, 0, 59, 74
2, 100608, Note_off_c, 0, 69, 0
2, 100608, Note_off_c, 0, 73, 0
2, 100608, Note_off_c, 0, 76, 0
2, 100608, Note_on_c, 0, 81, 99
2, 100608, Note_on_c, 0, 69, 81
2, 100608, Note_on_c, 0, 73, 81
2, 100608, Note_off_c, 0, 52, 0
2, 100608, Note_off_c, 0, 59, 0
2, 100608, Note_on_c, 0, 49, 66
2, 100608, Note_on_c, 0, 57, 66
2, 100800, Note_off_c, 0, 81, 0
2, 100800, Note_off_c, 0, 69, 0
2, 100800, Note_off_c, 0, 73, 0
2, 100800, Note_on_c, 0, 81, 87
2, 100800, Note_on_c, 0, 73, 79
2, 100800, Note_on_c, 0, 76, 79
2, 100864, Note_off_c, 0, 81, 0
2, 100864, Note_off_c, 0, 73, 0
2, 100864, Note_off_c, 0, 76, 0
2, 100864, Note_on_c, 0, 78, 69
2, 100864, Note_on_c, 0, 69, 70
2, 100864, Note_on_c, 0, 73, 70
2, 100864, Note_off_c, 0, 49, 0
2, 100864, Note_off_c, 0, 57, 0
2, 100864, Note_on_c, 0, 57, 71
2, 100864, Note_on_c, 0, 61, 71
2, 100928, Note_off_c, 0, 78, 0
2, 100928, Note_on_c, 0, 76, 69
2, 101120, Note_off_c, 0, 69, 0
2, 101120, Note_off_c, 0, 73, 0
2, 101120, Note_off_c, 0, 76, 0
2, 101120, Note_on_c, 0, 81, 87
2, 101120, Note_on_c, 0, 69, 77
2, 101120, Note_on_c, 0, 73, 77
2, 101120, Note_on_c, 0, 52, 64
2, 101120, Note_on_c, 0, 59, 64
2, 101125, Note_off_c, 0, 57, 0
2, 101125, Note_off_c, 0, 61, 0
2, 101312, Note_off_c, 0, 81, 0
2, 101312, Note_off_c, 0, 69, 0
2, 101312, Note_off_c, 0, 73, 0
2, 101312, Note_on_c, 0, 81, 73
2, 101312, Note_on_c, 0, 73, 79
2, 101312, Note_on_c, 0, 76, 79
2, 101376, Note_off_c, 0, 81, 0
2, 101376, Note_off_c, 0, 73, 0
2, 101376, Note_off_c, 0, 76, 0
2, 101376, Note_on_c, 0, 78, 67
2, 101376, Note_on_c, 0, 69, 69
2, 101376, Note_on_c, 0, 73, 69
2, 101376, Note_on_c, 0, 49, 59
2, 101376, Note_on_c, 0, 57, 59
2, 101381, Note_off_c, 0, 52, 0
2, 101381, Note_off_c, 0, 59, 0
2, 101440, Note_off_c, 0, 78, 0
2, 101440, Note_on_c, 0, 76, 70
2, 101632, Note_off_c, 0, 69, 0
2, 101632, Note_off_c, 0, 73, 0
2, 101632, Note_off_c, 0, 76, 0
2, 101632, Note_on_c, 0, 69, 58
2, 101632, Note_on_c, 0, 61, 49
2, 101632, Note_on_c, 0, 52, 57
2, 101632, Note_on_c, 0, 59, 57
2, 101637, Note_off_c, 0, 49, 0
2, 101637, Note_off_c, 0, 57, 0
2, 101824, Note_off_c, 0, 69, 0
2, 101824, Note_off_c, 0, 61, 0
2, 101824, Note_on_c, 0, 69, 74
2, 101824, Note_on_c, 0, 61, 68
2, 101824, Note_on_c, 0, 64, 68
2, 101875, Note_off_c, 0, 52, 0
2, 101875, Note_off_c, 0, 59, 0
2, 101888, Note_off_c, 0, 69, 0
2, 101888, Note_off_c, 0, 61, 0
2, 101888, Note_off_c, 0, 64, 0
2, 101888, Note_on_c, 0, 65, 58
2, 101888, Note_on_c, 0, 61, 46
2, 101888, Note_on_c, 0, 49, 51
2, 101888, Note_on_c, 0, 53, 51
2, 102080, Note_on_c, 0, 68, 61
2, 102083, Note_off_c, 0, 65, 0
2, 102144, Note_off_c, 0, 68, 0
2, 102144, Note_on_c, 0, 68, 65
2, 102400, Note_on_c, 0, 65, 57
2, 102405, Note_off_c, 0, 68, 0
2, 102592, Note_on_c, 0, 63, 54
2, 102595, Note_off_c, 0, 65, 0
2, 102656, Note_on_c, 0, 61, 45
2, 102657, Note_off_c, 0, 63, 0
2, 102860, Note_off_c, 0, 61, 0
2, 102899, Note_off_c, 0, 61, 0
2, 102912, Note_on_c, 0, 63, 69
2, 102912, Note_on_c, 0, 60, 52
2, 102912, Note_off_c, 0, 49, 0
2, 102912, Note_off_c, 0, 53, 0
2, 102912, Note_on_c, 0, 49, 59
2, 102912, Note_on_c, 0, 54, 59
2, 103104, Note_on_c, 0, 65, 76
2, 103107, Note_off_c, 0, 63, 0
2, 103168, Note_on_c, 0, 68, 74
2, 103169, Note_off_c, 0, 65, 0
2, 103360, Note_on_c, 0, 65, 67
2, 103363, Note_off_c, 0, 68, 0
2, 103424, Note_on_c, 0, 63, 58
2, 103425, Note_off_c, 0, 65, 0
2, 103884, Note_off_c, 0, 60, 0
2, 103910, Note_off_c, 0, 63, 0
2, 103936, Note_on_c, 0, 65, 67
2, 103936, Note_on_c, 0, 56, 49
2, 103936, Note_off_c, 0, 49, 0
2, 103936, Note_off_c, 0, 54, 0
2, 103936, Note_on_c, 0, 53, 55
2, 103936, Note_on_c, 0, 49, 48
2, 104128, Note_on_c, 0, 68, 74
2, 104131, Note_off_c, 0, 65, 0
2, 104192, Note_off_c, 0, 68, 0
2, 104192, Note_on_c, 0, 68, 65
2, 104448, Note_on_c, 0, 65, 59
2, 104448, Note_on_c, 0, 57, 54
2, 104448, Note_off_c, 0, 53, 0
2, 104448, Note_off_c, 0, 49, 0
2, 104448, Note_on_c, 0, 53, 52
2, 104448, Note_on_c, 0, 41, 45
2, 104453, Note_off_c, 0, 68, 0
2, 104458, Note_off_c, 0, 56, 0
2, 104640, Note_on_c, 0, 63, 60
2, 104643, Note_off_c, 0, 65, 0
2, 104704, Note_on_c, 0, 61, 57
2, 104705, Note_off_c, 0, 63, 0
2, 104934, Note_off_c, 0, 57, 0
2, 104947, Note_off_c, 0, 61, 0
2, 104960, Note_on_c, 0, 63, 63
2, 104960, Note_on_c, 0, 58, 55
2, 104960, Note_off_c, 0, 53, 0
2, 104960, Note_off_c, 0, 41, 0
2, 104960, Note_on_c, 0, 54, 60
2, 104960, Note_on_c, 0, 42, 53
2, 105088, Note_on_c, 0, 65, 67
2, 105090, Note_off_c, 0, 63, 0
2, 105216, Note_on_c, 0, 63, 67
2, 105216, Note_on_c, 0, 60, 59
2, 105216, Note_on_c, 0, 44, 56
2, 105218, Note_off_c, 0, 65, 0
2, 105221, Note_off_c, 0, 58, 0
2, 105226, Note_off_c, 0, 42, 0
2, 105408, Note_on_c, 0, 61, 53
2, 105411, Note_off_c, 0, 63, 0
2, 105472, Note_off_c, 0, 61, 0
2, 105472, Note_on_c, 0, 61, 57
2, 105472, Note_on_c, 0, 53, 56
2, 105472, Note_on_c, 0, 49, 61
2, 105477, Note_off_c, 0, 60, 0
2, 105482, Note_off_c, 0, 44, 0
2, 105492, Note_off_c, 0, 54, 0
2, 105933, Note_off_c, 0, 53, 0
2, 105933, Note_off_c, 0, 49, 0
2, 105958, Note_off_c, 0, 61, 0
2, 105984, Note_on_c, 0, 70, 83
2, 105984, Note_on_c, 0, 61, 65
2, 105984, Note_on_c, 0, 54, 67
2, 105984, Note_on_c, 0, 49, 57
2, 106112, Note_off_c, 0, 61, 0
2, 106112, Note_on_c, 0, 61, 67
2, 106112, Note_on_c, 0, 58, 72
2, 106114, Note_off_c, 0, 54, 0
2, 106176, Note_on_c, 0, 73, 92
2, 106179, Note_off_c, 0, 70, 0
2, 106240, Note_off_c, 0, 73, 0
2, 106240, Note_on_c, 0, 73, 64
2, 106240, Note_off_c, 0, 58, 0
2, 106240, Note_on_c, 0, 58, 66
2, 106368, Note_off_c, 0, 61, 0
2, 106368, Note_on_c, 0, 61, 69
2, 106496, Note_on_c, 0, 72, 61
2, 106496, Note_on_c, 0, 56, 66
2, 106501, Note_off_c, 0, 73, 0
2, 106501, Note_off_c, 0, 58, 0
2, 106624, Note_off_c, 0, 61, 0
2, 106624, Note_on_c, 0, 68, 57
2, 106624, Note_on_c, 0, 61, 64
2, 106624, Note_on_c, 0, 53, 63
2, 106626, Note_off_c, 0, 72, 0
2, 106626, Note_off_c, 0, 56, 0
2, 106752, Note_on_c, 0, 70, 60
2, 106752, Note_on_c, 0, 54, 65
2, 106754, Note_off_c, 0, 68, 0
2, 106754, Note_off_c, 0, 53, 0
2, 106867, Note_off_c, 0, 61, 0
2, 106880, Note_on_c, 0, 61, 67
2, 106995, Note_off_c, 0, 70, 0
2, 106995, Note_off_c, 0, 54, 0
2, 107008, Note_on_c, 0, 70, 65
2, 107008, Note_on_c, 0, 54, 66
2, 107136, Note_off_c, 0, 61, 0
2, 107136, Note_on_c, 0, 73, 69
2, 107136, Note_on_c, 0, 61, 63
2, 107136, Note_on_c, 0, 58, 70
2, 107138, Note_off_c, 0, 70, 0
2, 107138, Note_off_c, 0, 54, 0
2, 107264, Note_on_c, 0, 72, 64
2, 107264, Note_on_c, 0, 56, 62
2, 107266, Note_off_c, 0, 73, 0
2, 107266, Note_off_c, 0, 58, 0
2, 107392, Note_off_c, 0, 61, 0
2, 107392, Note_on_c, 0, 68, 60
2, 107392, Note_on_c, 0, 61, 67
2, 107392, Note_on_c, 0, 53, 60
2, 107394, Note_off_c, 0, 72, 0
2, 107394, Note_off_c, 0, 56, 0
2, 107520, Note_on_c, 0, 70, 66
2, 107520, Note_on_c, 0, 54, 69
2, 107522, Note_off_c, 0, 68, 0
2, 107522, Note_off_c, 0, 53, 0
2, 107635, Note_off_c, 0, 61, 0
2, 107648, Note_on_c, 0, 61, 66
2, 107904, Note_off_c, 0, 61, 0
2, 107904, Note_on_c, 0, 61, 62
2, 108006, Note_off_c, 0, 70, 0
2, 108006, Note_off_c, 0, 54, 0
2, 108032, Note_on_c, 0, 70, 65
2, 108032, Note_on_c, 0, 54, 57
2, 108160, Note_off_c, 0, 61, 0
2, 108160, Note_on_c, 0, 73, 66
2, 108160, Note_on_c, 0, 61, 66
2, 108160, Note_on_c, 0, 58, 58
2, 108162, Note_off_c, 0, 70, 0
2, 108162, Note_off_c, 0, 54, 0
2, 108288, Note_off_c, 0, 73, 0
2, 108288, Note_on_c, 0, 73, 61
2, 108288, Note_off_c, 0, 58, 0
2, 108288, Note_on_c, 0, 58, 57
2, 108416, Note_off_c, 0, 61, 0
2, 108416, Note_on_c, 0, 61, 65
2, 108544, Note_on_c, 0, 72, 59
2, 108544, Note_on_c, 0, 56, 58
2, 108549, Note_off_c, 0, 73, 0
2, 108549, Note_off_c, 0, 58, 0
2, 108659, Note_off_c, 0, 49, 0
2, 108672, Note_off_c, 0, 61, 0
2, 108672, Note_on_c, 0, 68, 55
2, 108672, Note_on_c, 0, 61, 66
2, 108672, Note_on_c, 0, 53, 50
2, 108674, Note_off_c, 0, 72, 0
2, 108674, Note_off_c, 0, 56, 0
2, 108793, Note_off_c, 0, 68, 0
2, 108793, Note_off_c, 0, 61, 0
2, 108793, Note_off_c, 0, 53, 0
2, 109184, Note_on_c, 0, 70, 59
2, 109184, Note_on_c, 0, 61, 48
2, 109184, Note_on_c, 0, 54, 52
2, 109184, Note_on_c, 0, 49, 53
2, 109312, Note_off_c, 0, 61, 0
2, 109312, Note_on_c, 0, 61, 52
2, 109568, Note_off_c, 0, 61, 0
2, 109568, Note_on_c, 0, 61, 54
2, 109696, Note_off_c, 0, 70, 0
2, 109696, Note_off_c, 0, 61, 0
2, 109696, Note_off_c, 0, 54, 0
2, 109696, Note_off_c, 0, 49, 0
2, 110080, Note_on_c, 0, 70, 46
2, 110080, Note_on_c, 0, 61, 47
2, 110080, Note_on_c, 0, 54, 46
2, 110080, Note_on_c, 0, 49, 52
2, 110208, Note_off_c, 0, 61, 0
2, 110208, Note_on_c, 0, 73, 48
2, 110208, Note_on_c, 0, 61, 56
2, 110208, Note_on_c, 0, 58, 49
2, 110210, Note_off_c, 0, 70, 0
2, 110210, Note_off_c, 0, 54, 0
2, 110336, Note_on_c, 0, 72, 49
2, 110336, Note_on_c, 0, 56, 51
2, 110338, Note_off_c, 0, 73, 0
2, 110338, Note_off_c, 0, 58, 0
2, 110464, Note_off_c, 0, 61, 0
2, 110464, Note_on_c, 0, 68, 40
2, 110464, Note_on_c, 0, 61, 56
2, 110464, Note_on_c, 0, 53, 46
2, 110466, Note_off_c, 0, 72, 0
2, 110466, Note_off_c, 0, 56, 0
2, 110592, Note_on_c, 0, 70, 59
2, 110592, Note_on_c, 0, 54, 55
2, 110594, Note_off_c, 0, 68, 0
2, 110594, Note_off_c, 0, 53, 0
2, 110707, Note_off_c, 0, 61, 0
2, 110720, Note_on_c, 0, 61, 53
2, 110976, Note_off_c, 0, 61, 0
2, 110976, Note_on_c, 0, 61, 51
2, 111052, Note_off_c, 0, 49, 0
2, 111078, Note_off_c, 0, 70, 0
2, 111078, Note_off_c, 0, 54, 0
2, 111104, Note_off_c, 0, 61, 0
2, 111488, Note_on_c, 0, 61, 50
2, 111488, Note_on_c, 0, 65, 50
2, 111488, Note_on_c, 0, 49, 52
2, 111680, Note_off_c, 0, 65, 0
2, 111680, Note_on_c, 0, 65, 55
2, 111680, Note_on_c, 0, 68, 55
2, 111683, Note_off_c, 0, 61, 0
2, 111744, Note_off_c, 0, 65, 0
2, 111744, Note_off_c, 0, 68, 0
2, 111744, Note_on_c, 0, 65, 55
2, 111744, Note_on_c, 0, 68, 55
2, 112000, Note_off_c, 0, 65, 0
2, 112000, Note_on_c, 0, 61, 50
2, 112000, Note_on_c, 0, 65, 50
2, 112005, Note_off_c, 0, 68, 0
2, 112192, Note_on_c, 0, 56, 48
2, 112192, Note_on_c, 0, 63, 48
2, 112195, Note_off_c, 0, 61, 0
2, 112195, Note_off_c, 0, 65, 0
2, 112256, Note_on_c, 0, 53, 45
2, 112256, Note_on_c, 0, 61, 45
2, 112257, Note_off_c, 0, 56, 0
2, 112257, Note_off_c, 0, 63, 0
2, 112499, Note_off_c, 0, 53, 0
2, 112499, Note_off_c, 0, 61, 0
2, 112512, Note_on_c, 0, 56, 59
2, 112512, Note_on_c, 0, 63, 59
2, 112704, Note_on_c, 0, 61, 60
2, 112704, Note_on_c, 0, 65, 60
2, 112707, Note_off_c, 0, 56, 0
2, 112707, Note_off_c, 0, 63, 0
2, 112768, Note_on_c, 0, 63, 62
2, 112768, Note_on_c, 0, 68, 62
2, 112769, Note_off_c, 0, 61, 0
2, 112769, Note_off_c, 0, 65, 0
2, 112960, Note_on_c, 0, 61, 58
2, 112960, Note_on_c, 0, 65, 58
2, 112963, Note_off_c, 0, 63, 0
2, 112963, Note_off_c, 0, 68, 0
2, 113024, Note_on_c, 0, 60, 51
2, 113024, Note_on_c, 0, 63, 51
2, 113025, Note_off_c, 0, 61, 0
2, 113025, Note_off_c, 0, 65, 0
2, 113280, Note_on_c, 0, 64, 51
2, 113280, Note_on_c, 0, 58, 50
2, 113285, Note_off_c, 0, 60, 0
2, 113285, Note_off_c, 0, 63, 0
2, 113401, Note_off_c, 0, 58, 0
2, 113408, Note_on_c, 0, 57, 51
2, 113523, Note_off_c, 0, 64, 0
2, 113536, Note_off_c, 0, 57, 0
2, 113536, Note_on_c, 0, 65, 69
2, 113536, Note_on_c, 0, 61, 61
2, 113536, Note_off_c, 0, 49, 0
2, 113536, Note_on_c, 0, 56, 59
2, 113536, Note_on_c, 0, 49, 51
2, 113728, Note_on_c, 0, 68, 71
2, 113734, Note_off_c, 0, 65, 0
2, 113783, Note_off_c, 0, 61, 0
2, 113788, Note_off_c, 0, 68, 0
2, 113792, Note_on_c, 0, 68, 77
2, 113792, Note_on_c, 0, 63, 76
2, 113792, Note_on_c, 0, 48, 61
2, 113797, Note_off_c, 0, 49, 0
2, 114022, Note_off_c, 0, 56, 0
2, 114035, Note_off_c, 0, 48, 0
2, 114048, Note_on_c, 0, 73, 94
2, 114048, Note_on_c, 0, 61, 68
2, 114048, Note_on_c, 0, 53, 73
2, 114048, Note_on_c, 0, 46, 76
2, 114053, Note_off_c, 0, 68, 0
2, 114053, Note_off_c, 0, 63, 0
2, 114240, Note_on_c, 0, 75, 102
2, 114240, Note_on_c, 0, 54, 74
2, 114246, Note_off_c, 0, 73, 0
2, 114246, Note_off_c, 0, 53, 0
2, 114304, Note_on_c, 0, 77, 93
2, 114304, Note_on_c, 0, 65, 89
2, 114304, Note_on_c, 0, 56, 77
2, 114304, Note_on_c, 0, 44, 75
2, 114306, Note_off_c, 0, 75, 0
2, 114306, Note_off_c, 0, 54, 0
2, 114314, Note_off_c, 0, 61, 0
2, 114314, Note_off_c, 0, 46, 0
2, 114534, Note_off_c, 0, 77, 0
2, 114534, Note_off_c, 0, 65, 0
2, 114534, Note_off_c, 0, 56, 0
2, 114534, Note_off_c, 0, 44, 0
2, 114560, Note_on_c, 0, 75, 96
2, 114560, Note_on_c, 0, 66, 99
2, 114560, Note_on_c, 0, 69, 99
2, 114560, Note_on_c, 0, 49, 78
2, 114560, Note_on_c, 0, 42, 81
2, 114752, Note_on_c, 0, 73, 79
2, 114755, Note_off_c, 0, 75, 0
2, 114816, Note_on_c, 0, 75, 94
2, 114817, Note_off_c, 0, 73, 0
2, 114944, Note_on_c, 0, 72, 87
2, 114946, Note_off_c, 0, 75, 0
2, 115072, Note_on_c, 0, 73, 92
2, 115072, Note_on_c, 0, 65, 62
2, 115072, Note_on_c, 0, 68, 62
2, 115072, Note_on_c, 0, 37, 67
2, 115074, Note_off_c, 0, 72, 0
2, 115082, Note_off_c, 0, 66, 0
2, 115082, Note_off_c, 0, 69, 0
2, 115082, Note_off_c, 0, 42, 0
2, 115532, Note_off_c, 0, 49, 0
2, 115558, Note_off_c, 0, 73, 0
2, 115558, Note_off_c, 0, 65, 0
2, 115558, Note_off_c, 0, 68, 0
2, 115558, Note_off_c, 0, 37, 0
2, 115584, Note_on_c, 0, 75, 69
2, 115584, Note_on_c, 0, 70, 68
2, 115584, Note_on_c, 0, 49, 66
2, 115584, Note_on_c, 0, 42, 66
2, 115776, Note_on_c, 0, 73, 65
2, 115782, Note_off_c, 0, 75, 0
2, 115840, Note_on_c, 0, 75, 67
2, 115842, Note_off_c, 0, 73, 0
2, 115944, Note_off_c, 0, 70, 0
2, 115968, Note_on_c, 0, 70, 60
2, 115968, Note_on_c, 0, 63, 60
2, 115972, Note_off_c, 0, 75, 0
2, 116096, Note_on_c, 0, 68, 67
2, 116096, Note_on_c, 0, 73, 67
2, 116096, Note_on_c, 0, 65, 67
2, 116096, Note_on_c, 0, 44, 57
2, 116096, Note_on_c, 0, 37, 61
2, 116100, Note_off_c, 0, 70, 0
2, 116100, Note_off_c, 0, 63, 0
2, 116116, Note_off_c, 0, 49, 0
2, 116116, Note_off_c, 0, 42, 0
2, 116210, Note_off_c, 0, 73, 0
2, 116212, Note_off_c, 0, 68, 0
2, 116224, Note_on_c, 0, 73, 63
2, 116352, Note_on_c, 0, 77, 70
2, 116354, Note_off_c, 0, 73, 0
2, 116480, Note_on_c, 0, 80, 70
2, 116482, Note_off_c, 0, 77, 0
2, 116533, Note_off_c, 0, 65, 0
2, 116557, Note_off_c, 0, 44, 0
2, 116557, Note_off_c, 0, 37, 0
2, 116601, Note_off_c, 0, 80, 0
2, 116608, Note_on_c, 0, 82, 73
2, 116608, Note_on_c, 0, 75, 69
2, 116608, Note_on_c, 0, 49, 56
2, 116608, Note_on_c, 0, 42, 54
2, 116800, Note_on_c, 0, 73, 62
2, 116803, Note_off_c, 0, 75, 0
2, 116864, Note_on_c, 0, 75, 58
2, 116865, Note_off_c, 0, 73, 0
2, 116992, Note_on_c, 0, 70, 52
2, 116994, Note_off_c, 0, 75, 0
2, 117120, Note_on_c, 0, 73, 57
2, 117120, Note_on_c, 0, 44, 54
2, 117120, Note_on_c, 0, 37, 55
2, 117122, Note_off_c, 0, 70, 0
2, 117140, Note_off_c, 0, 49, 0
2, 117140, Note_off_c, 0, 42, 0
2, 117248, Note_on_c, 0, 80, 60
2, 117260, Note_off_c, 0, 82, 0
2, 117376, Note_on_c, 0, 85, 69
2, 117378, Note_off_c, 0, 80, 0
2, 117504, Note_on_c, 0, 82, 63
2, 117506, Note_off_c, 0, 85, 0
2, 117606, Note_off_c, 0, 73, 0
2, 117625, Note_off_c, 0, 82, 0
2, 117632, Note_on_c, 0, 80, 51
2, 117760, Note_on_c, 0, 77, 55
2, 117762, Note_off_c, 0, 80, 0
2, 117888, Note_on_c, 0, 82, 69
2, 117890, Note_off_c, 0, 77, 0
2, 118016, Note_on_c, 0, 80, 58
2, 118018, Note_off_c, 0, 82, 0
2, 118144, Note_on_c, 0, 77, 54
2, 118146, Note_off_c, 0, 80, 0
2, 118272, Note_on_c, 0, 80, 63
2, 118274, Note_off_c, 0, 77, 0
2, 118382, Note_off_c, 0, 80, 0
2, 118382, Note_on_c, 0, 77, 55
2, 118391, Note_on_c, 0, 78, 55
2, 118400, Note_on_c, 0, 77, 55
2, 118400, Note_off_c, 0, 77, 0
2, 118400, Note_off_c, 0, 78, 0
2, 118528, Note_on_c, 0, 75, 48
2, 118530, Note_off_c, 0, 77, 0
2, 118621, Note_off_c, 0, 44, 0
2, 118621, Note_off_c, 0, 37, 0
2, 118649, Note_off_c, 0, 75, 0
2, 118656, Note_on_c, 0, 73, 57
2, 118784, Note_on_c, 0, 77, 66
2, 118786, Note_off_c, 0, 73, 0
2, 118912, Note_on_c, 0, 80, 59
2, 118914, Note_off_c, 0, 77, 0
2, 119040, Note_on_c, 0, 77, 58
2, 119042, Note_off_c, 0, 80, 0
2, 119104, Note_on_c, 0, 75, 54
2, 119105, Note_off_c, 0, 77, 0
2, 119150, Note_off_c, 0, 75, 0
2, 119150, Note_on_c, 0, 73, 49
2, 119159, Note_on_c, 0, 75, 49
2, 119168, Note_on_c, 0, 73, 49
2, 119168, Note_off_c, 0, 73, 0
2, 119168, Note_off_c, 0, 75, 0
2, 119296, Note_on_c, 0, 70, 43
2, 119298, Note_off_c, 0, 73, 0
2, 119424, Note_on_c, 0, 68, 54
2, 119426, Note_off_c, 0, 70, 0
2, 119552, Note_on_c, 0, 65, 52
2, 119554, Note_off_c, 0, 68, 0
2, 119673, Note_off_c, 0, 65, 0
2, 119680, Note_on_c, 0, 65, 53
2, 119936, Note_on_c, 0, 61, 46
2, 119941, Note_off_c, 0, 65, 0
2, 120064, Note_on_c, 0, 63, 56
2, 120066, Note_off_c, 0, 61, 0
2, 120192, Note_on_c, 0, 65, 68
2, 120194, Note_off_c, 0, 63, 0
2, 120320, Note_on_c, 0, 68, 75
2, 120322, Note_off_c, 0, 65, 0
2, 120576, Note_on_c, 0, 65, 57
2, 120581, Note_off_c, 0, 68, 0
2, 120704, Note_off_c, 0, 65, 0
2, 120704, Note_on_c, 0, 65, 52
2, 120960, Note_on_c, 0, 63, 50
2, 120965, Note_off_c, 0, 65, 0
2, 121216, Note_on_c, 0, 61, 45
2, 121221, Note_off_c, 0, 63, 0
2, 121472, Note_on_c, 0, 58, 50
2, 121477, Note_off_c, 0, 61, 0
2, 121715, Note_off_c, 0, 58, 0
2, 121728, Note_on_c, 0, 56, 59
2, 121728, Note_on_c, 0, 61, 59
2, 121728, Note_on_c, 0, 53, 45
2, 121728, Note_on_c, 0, 49, 45
2, 122240, Note_off_c, 0, 56, 0
2, 122240, Note_off_c, 0, 61, 0
2, 122240, Note_on_c, 0, 55, 65
2, 122240, Note_on_c, 0, 62, 65
2, 122240, Note_off_c, 0, 53, 0
2, 122240, Note_off_c, 0, 49, 0
2, 122240, Note_on_c, 0, 50, 54
2, 122240, Note_on_c, 0, 47, 50
2, 122752, Note_off_c, 0, 55, 0
2, 122752, Note_off_c, 0, 62, 0
2, 122752, Note_on_c, 0, 56, 67
2, 122752, Note_on_c, 0, 61, 67
2, 122752, Note_off_c, 0, 50, 0
2, 122752, Note_off_c, 0, 47, 0
2, 122752, Note_on_c, 0, 53, 71
2, 122752, Note_on_c, 0, 49, 61
2, 123264, Note_off_c, 0, 56, 0
2, 123264, Note_off_c, 0, 61, 0
2, 123264, Note_on_c, 0, 58, 78
2, 123264, Note_on_c, 0, 62, 78
2, 123264, Note_off_c, 0, 53, 0
2, 123264, Note_off_c, 0, 49, 0
2, 123264, Note_on_c, 0, 53, 60
2, 123264, Note_on_c, 0, 46, 58
2, 123776, Note_off_c, 0, 58, 0
2, 123776, Note_off_c, 0, 62, 0
2, 123776, Note_on_c, 0, 61, 73
2, 123776, Note_on_c, 0, 58, 66
2, 123776, Note_on_c, 0, 54, 46
2, 123776, Note_off_c, 0, 53, 0
2, 123776, Note_off_c, 0, 46, 0
2, 123776, Note_on_c, 0, 42, 68
2, 124288, Note_off_c, 0, 61, 0
2, 124288, Note_on_c, 0, 63, 88
2, 124288, Note_off_c, 0, 42, 0
2, 124288, Note_on_c, 0, 39, 80
2, 124544, Note_off_c, 0, 58, 0
2, 124544, Note_on_c, 0, 60, 74
2, 124800, Note_off_c, 0, 54, 0
2, 124800, Note_off_c, 0, 63, 0
2, 124800, Note_off_c, 0, 60, 0
2, 124800, Note_on_c, 0, 56, 111
2, 124800, Note_on_c, 0, 61, 111
2, 124800, Note_on_c, 0, 65, 111
2, 124800, Note_off_c, 0, 39, 0
2, 124800, Note_on_c, 0, 37, 73
2, 124928, Note_on_c, 0, 37, 78
2, 125056, Note_off_c, 0, 37, 0
2, 125056, Note_on_c, 0, 44, 92
2, 125184, Note_off_c, 0, 44, 0
2, 125184, Note_on_c, 0, 49, 90
2, 125312, Note_on_c, 0, 53, 68
2, 125312, Note_off_c, 0, 49, 0
2, 125440, Note_off_c, 0, 53, 0
2, 125440, Note_on_c, 0, 56, 74
2, 125568, Note_off_c, 0, 56, 0
2, 125568, Note_on_c, 0, 61, 88
2, 125696, Note_off_c, 0, 61, 0
2, 125696, Note_on_c, 0, 65, 81
2, 125824, Note_off_c, 0, 56, 0
2, 125824, Note_off_c, 0, 61, 0
2, 125824, Note_off_c, 0, 65, 0
2, 125824, Note_off_c, 0, 65, 0
2, 125824, Note_on_c, 0, 68, 72
2, 125824, Note_off_c, 0, 37, 0
2, 125824, Note_on_c, 0, 49, 55
2, 125952, Note_on_c, 0, 73, 50
2, 126080, Note_on_c, 0, 77, 52
2, 126082, Note_off_c, 0, 73, 0
2, 126208, Note_on_c, 0, 80, 63
2, 126210, Note_off_c, 0, 77, 0
2, 126336, Note_on_c, 0, 85, 54
2, 126338, Note_off_c, 0, 80, 0
2, 126464, Note_on_c, 0, 87, 57
2, 126466, Note_off_c, 0, 85, 0
2, 126592, Note_on_c, 0, 89, 62
2, 126594, Note_off_c, 0, 87, 0
2, 126720, Note_on_c, 0, 92, 58
2, 126722, Note_off_c, 0, 89, 0
2, 126841, Note_off_c, 0, 92, 0
2, 126848, Note_off_c, 0, 68, 0
2, 126848, Note_on_c, 0, 85, 62
2, 126848, Note_on_c, 0, 89, 62
2, 126848, Note_on_c, 0, 92, 62
2, 126848, Note_on_c, 0, 97, 62
2, 126848, Note_on_c, 0, 73, 38
2, 126848, Note_off_c, 0, 49, 0
2, 128128, Note_off_c, 0, 85, 0
2, 128128, Note_off_c, 0, 89, 0
2, 128128, Note_off_c, 0, 92, 0
2, 128128, Note_off_c, 0, 97, 0
2, 128128, Note_off_c, 0, 73, 0
2, 128384, Note_on_c, 0, 49, 49
2, 128384, Note_on_c, 0, 53, 49
2, 128384, Note_on_c, 0, 37, 49
2, 128384, Note_on_c, 0, 44, 49
2, 128734, Note_off_c, 0, 49, 0
2, 128734, Note_off_c, 0, 53, 0
2, 128734, Note_off_c, 0, 37, 0
2, 128734, Note_off_c, 0, 44, 0
2, 128896, Note_on_c, 0, 49, 39
2, 128896, Note_on_c, 0, 53, 39
2, 128896, Note_on_c, 0, 37, 42
2, 128896, Note_on_c, 0, 44, 42
2, 129536, Note_off_c, 0, 49, 0
2, 129536, Note_off_c, 0, 53, 0
2, 129536, Note_off_c, 0, 37, 0
2, 129536, Note_off_c, 0, 44, 0
2, 129537, End_track
0, 0, End_of_file
